M48
; DRILL file {KiCad (5.1.5-0)} date 2020 December 05, Saturday 10:40:42
; FORMAT={-:-/ absolute / metric / decimal}
; #@! TF.CreationDate,2020-12-05T10:40:42+01:00
; #@! TF.GenerationSoftware,Kicad,Pcbnew,(5.1.5-0)
FMAT,2
METRIC
T1C0.800
T2C0.900
T3C1.200
T4C1.900
%
G90
G05
T1
X133.604Y-64.77
X133.604Y-72.39
X136.144Y-64.77
X136.144Y-72.39
X138.684Y-64.77
X138.684Y-72.39
X141.224Y-64.77
X141.224Y-72.39
X135.89Y-56.769
X138.39Y-56.769
T2
X107.95Y-62.23
X110.49Y-62.23
X165.1Y-60.96
X167.64Y-60.96
X157.48Y-45.72
X160.02Y-45.72
X114.3Y-45.72
X116.84Y-45.72
X109.22Y-53.34
X111.76Y-53.34
X161.925Y-52.705
X164.465Y-52.705
T3
X127.0Y-41.91
X147.32Y-41.91
X152.4Y-52.07
X152.4Y-72.39
X121.92Y-52.07
X121.92Y-72.39
X126.746Y-48.26
X147.066Y-48.26
T4
X131.322Y-88.9
X144.522Y-88.9
T0
M30
