G04 #@! TF.GenerationSoftware,KiCad,Pcbnew,(5.1.5-0)*
G04 #@! TF.CreationDate,2020-12-05T10:39:51+01:00*
G04 #@! TF.ProjectId,xmas_fablab2020,786d6173-5f66-4616-926c-616232303230,rev?*
G04 #@! TF.SameCoordinates,Original*
G04 #@! TF.FileFunction,Legend,Top*
G04 #@! TF.FilePolarity,Positive*
%FSLAX46Y46*%
G04 Gerber Fmt 4.6, Leading zero omitted, Abs format (unit mm)*
G04 Created by KiCad (PCBNEW (5.1.5-0)) date 2020-12-05 10:39:51*
%MOMM*%
%LPD*%
G04 APERTURE LIST*
%ADD10C,0.120000*%
%ADD11C,0.150000*%
%ADD12C,0.110000*%
%ADD13C,0.300000*%
%ADD14C,0.500000*%
G04 APERTURE END LIST*
D10*
X139688799Y-59450457D02*
G75*
G02X143001999Y-76707999I-2274799J-9383543D01*
G01*
X131305350Y-76397089D02*
G75*
G02X134112001Y-59690001I6108650J7563089D01*
G01*
D11*
X149804380Y-66658571D02*
X149137714Y-66658571D01*
X149328190Y-66658571D02*
X149232952Y-66610952D01*
X149185333Y-66563333D01*
X149137714Y-66468095D01*
X149137714Y-66372857D01*
X149756761Y-65658571D02*
X149804380Y-65753809D01*
X149804380Y-65944285D01*
X149756761Y-66039523D01*
X149661523Y-66087142D01*
X149280571Y-66087142D01*
X149185333Y-66039523D01*
X149137714Y-65944285D01*
X149137714Y-65753809D01*
X149185333Y-65658571D01*
X149280571Y-65610952D01*
X149375809Y-65610952D01*
X149471047Y-66087142D01*
X149756761Y-65230000D02*
X149804380Y-65134761D01*
X149804380Y-64944285D01*
X149756761Y-64849047D01*
X149661523Y-64801428D01*
X149613904Y-64801428D01*
X149518666Y-64849047D01*
X149471047Y-64944285D01*
X149471047Y-65087142D01*
X149423428Y-65182380D01*
X149328190Y-65230000D01*
X149280571Y-65230000D01*
X149185333Y-65182380D01*
X149137714Y-65087142D01*
X149137714Y-64944285D01*
X149185333Y-64849047D01*
X149804380Y-64372857D02*
X149137714Y-64372857D01*
X148804380Y-64372857D02*
X148852000Y-64420476D01*
X148899619Y-64372857D01*
X148852000Y-64325238D01*
X148804380Y-64372857D01*
X148899619Y-64372857D01*
X149756761Y-63944285D02*
X149804380Y-63849047D01*
X149804380Y-63658571D01*
X149756761Y-63563333D01*
X149661523Y-63515714D01*
X149613904Y-63515714D01*
X149518666Y-63563333D01*
X149471047Y-63658571D01*
X149471047Y-63801428D01*
X149423428Y-63896666D01*
X149328190Y-63944285D01*
X149280571Y-63944285D01*
X149185333Y-63896666D01*
X149137714Y-63801428D01*
X149137714Y-63658571D01*
X149185333Y-63563333D01*
X149137714Y-63230000D02*
X149137714Y-62849047D01*
X148804380Y-63087142D02*
X149661523Y-63087142D01*
X149756761Y-63039523D01*
X149804380Y-62944285D01*
X149804380Y-62849047D01*
X149756761Y-62134761D02*
X149804380Y-62230000D01*
X149804380Y-62420476D01*
X149756761Y-62515714D01*
X149661523Y-62563333D01*
X149280571Y-62563333D01*
X149185333Y-62515714D01*
X149137714Y-62420476D01*
X149137714Y-62230000D01*
X149185333Y-62134761D01*
X149280571Y-62087142D01*
X149375809Y-62087142D01*
X149471047Y-62563333D01*
X149137714Y-61658571D02*
X149804380Y-61658571D01*
X149232952Y-61658571D02*
X149185333Y-61610952D01*
X149137714Y-61515714D01*
X149137714Y-61372857D01*
X149185333Y-61277619D01*
X149280571Y-61230000D01*
X149804380Y-61230000D01*
X149137714Y-60849047D02*
X149137714Y-60325238D01*
X149804380Y-60849047D01*
X149804380Y-60325238D01*
X149804380Y-59515714D02*
X149280571Y-59515714D01*
X149185333Y-59563333D01*
X149137714Y-59658571D01*
X149137714Y-59849047D01*
X149185333Y-59944285D01*
X149756761Y-59515714D02*
X149804380Y-59610952D01*
X149804380Y-59849047D01*
X149756761Y-59944285D01*
X149661523Y-59991904D01*
X149566285Y-59991904D01*
X149471047Y-59944285D01*
X149423428Y-59849047D01*
X149423428Y-59610952D01*
X149375809Y-59515714D01*
X149137714Y-57849047D02*
X149804380Y-57849047D01*
X148756761Y-58087142D02*
X149471047Y-58325238D01*
X149471047Y-57706190D01*
D10*
X133737333Y-62588000D02*
X133737333Y-63054666D01*
X133570666Y-62321333D02*
X133404000Y-62821333D01*
X133837333Y-62821333D01*
X141157333Y-74084666D02*
X141090666Y-74051333D01*
X141057333Y-74018000D01*
X141024000Y-73951333D01*
X141024000Y-73918000D01*
X141057333Y-73851333D01*
X141090666Y-73818000D01*
X141157333Y-73784666D01*
X141290666Y-73784666D01*
X141357333Y-73818000D01*
X141390666Y-73851333D01*
X141424000Y-73918000D01*
X141424000Y-73951333D01*
X141390666Y-74018000D01*
X141357333Y-74051333D01*
X141290666Y-74084666D01*
X141157333Y-74084666D01*
X141090666Y-74118000D01*
X141057333Y-74151333D01*
X141024000Y-74218000D01*
X141024000Y-74351333D01*
X141057333Y-74418000D01*
X141090666Y-74451333D01*
X141157333Y-74484666D01*
X141290666Y-74484666D01*
X141357333Y-74451333D01*
X141390666Y-74418000D01*
X141424000Y-74351333D01*
X141424000Y-74218000D01*
X141390666Y-74151333D01*
X141357333Y-74118000D01*
X141290666Y-74084666D01*
X138450666Y-73784666D02*
X138917333Y-73784666D01*
X138617333Y-74484666D01*
X136277333Y-73784666D02*
X136144000Y-73784666D01*
X136077333Y-73818000D01*
X136044000Y-73851333D01*
X135977333Y-73951333D01*
X135944000Y-74084666D01*
X135944000Y-74351333D01*
X135977333Y-74418000D01*
X136010666Y-74451333D01*
X136077333Y-74484666D01*
X136210666Y-74484666D01*
X136277333Y-74451333D01*
X136310666Y-74418000D01*
X136344000Y-74351333D01*
X136344000Y-74184666D01*
X136310666Y-74118000D01*
X136277333Y-74084666D01*
X136210666Y-74051333D01*
X136077333Y-74051333D01*
X136010666Y-74084666D01*
X135977333Y-74118000D01*
X135944000Y-74184666D01*
X133770666Y-73784666D02*
X133437333Y-73784666D01*
X133404000Y-74118000D01*
X133437333Y-74084666D01*
X133504000Y-74051333D01*
X133670666Y-74051333D01*
X133737333Y-74084666D01*
X133770666Y-74118000D01*
X133804000Y-74184666D01*
X133804000Y-74351333D01*
X133770666Y-74418000D01*
X133737333Y-74451333D01*
X133670666Y-74484666D01*
X133504000Y-74484666D01*
X133437333Y-74451333D01*
X133404000Y-74418000D01*
X135910666Y-62354666D02*
X136344000Y-62354666D01*
X136110666Y-62621333D01*
X136210666Y-62621333D01*
X136277333Y-62654666D01*
X136310666Y-62688000D01*
X136344000Y-62754666D01*
X136344000Y-62921333D01*
X136310666Y-62988000D01*
X136277333Y-63021333D01*
X136210666Y-63054666D01*
X136010666Y-63054666D01*
X135944000Y-63021333D01*
X135910666Y-62988000D01*
X138484000Y-62421333D02*
X138517333Y-62388000D01*
X138584000Y-62354666D01*
X138750666Y-62354666D01*
X138817333Y-62388000D01*
X138850666Y-62421333D01*
X138884000Y-62488000D01*
X138884000Y-62554666D01*
X138850666Y-62654666D01*
X138450666Y-63054666D01*
X138884000Y-63054666D01*
X141424000Y-63054666D02*
X141024000Y-63054666D01*
X141224000Y-63054666D02*
X141224000Y-62354666D01*
X141157333Y-62454666D01*
X141090666Y-62521333D01*
X141024000Y-62554666D01*
D12*
X143052857Y-64470000D02*
X142995714Y-64441428D01*
X142910000Y-64441428D01*
X142824285Y-64470000D01*
X142767142Y-64527142D01*
X142738571Y-64584285D01*
X142710000Y-64698571D01*
X142710000Y-64784285D01*
X142738571Y-64898571D01*
X142767142Y-64955714D01*
X142824285Y-65012857D01*
X142910000Y-65041428D01*
X142967142Y-65041428D01*
X143052857Y-65012857D01*
X143081428Y-64984285D01*
X143081428Y-64784285D01*
X142967142Y-64784285D01*
X143338571Y-65041428D02*
X143338571Y-64441428D01*
X143681428Y-65041428D01*
X143681428Y-64441428D01*
X143967142Y-65041428D02*
X143967142Y-64441428D01*
X144110000Y-64441428D01*
X144195714Y-64470000D01*
X144252857Y-64527142D01*
X144281428Y-64584285D01*
X144310000Y-64698571D01*
X144310000Y-64784285D01*
X144281428Y-64898571D01*
X144252857Y-64955714D01*
X144195714Y-65012857D01*
X144110000Y-65041428D01*
X143967142Y-65041428D01*
X142738571Y-72432857D02*
X143195714Y-72432857D01*
X142967142Y-72661428D02*
X142967142Y-72204285D01*
X143767142Y-72061428D02*
X143481428Y-72061428D01*
X143452857Y-72347142D01*
X143481428Y-72318571D01*
X143538571Y-72290000D01*
X143681428Y-72290000D01*
X143738571Y-72318571D01*
X143767142Y-72347142D01*
X143795714Y-72404285D01*
X143795714Y-72547142D01*
X143767142Y-72604285D01*
X143738571Y-72632857D01*
X143681428Y-72661428D01*
X143538571Y-72661428D01*
X143481428Y-72632857D01*
X143452857Y-72604285D01*
X143967142Y-72061428D02*
X144167142Y-72661428D01*
X144367142Y-72061428D01*
D11*
X137160095Y-94242000D02*
X137064857Y-94194380D01*
X136922000Y-94194380D01*
X136779142Y-94242000D01*
X136683904Y-94337238D01*
X136636285Y-94432476D01*
X136588666Y-94622952D01*
X136588666Y-94765809D01*
X136636285Y-94956285D01*
X136683904Y-95051523D01*
X136779142Y-95146761D01*
X136922000Y-95194380D01*
X137017238Y-95194380D01*
X137160095Y-95146761D01*
X137207714Y-95099142D01*
X137207714Y-94765809D01*
X137017238Y-94765809D01*
X137636285Y-95194380D02*
X137636285Y-94194380D01*
X138207714Y-95194380D01*
X138207714Y-94194380D01*
X138683904Y-95194380D02*
X138683904Y-94194380D01*
X138922000Y-94194380D01*
X139064857Y-94242000D01*
X139160095Y-94337238D01*
X139207714Y-94432476D01*
X139255333Y-94622952D01*
X139255333Y-94765809D01*
X139207714Y-94956285D01*
X139160095Y-95051523D01*
X139064857Y-95146761D01*
X138922000Y-95194380D01*
X138683904Y-95194380D01*
X126222285Y-88971428D02*
X126984190Y-88971428D01*
X126603238Y-89352380D02*
X126603238Y-88590476D01*
X127936571Y-88352380D02*
X127460380Y-88352380D01*
X127412761Y-88828571D01*
X127460380Y-88780952D01*
X127555619Y-88733333D01*
X127793714Y-88733333D01*
X127888952Y-88780952D01*
X127936571Y-88828571D01*
X127984190Y-88923809D01*
X127984190Y-89161904D01*
X127936571Y-89257142D01*
X127888952Y-89304761D01*
X127793714Y-89352380D01*
X127555619Y-89352380D01*
X127460380Y-89304761D01*
X127412761Y-89257142D01*
X128269904Y-88352380D02*
X128603238Y-89352380D01*
X128936571Y-88352380D01*
X146796285Y-88971428D02*
X147558190Y-88971428D01*
X147177238Y-89352380D02*
X147177238Y-88590476D01*
X148510571Y-88352380D02*
X148034380Y-88352380D01*
X147986761Y-88828571D01*
X148034380Y-88780952D01*
X148129619Y-88733333D01*
X148367714Y-88733333D01*
X148462952Y-88780952D01*
X148510571Y-88828571D01*
X148558190Y-88923809D01*
X148558190Y-89161904D01*
X148510571Y-89257142D01*
X148462952Y-89304761D01*
X148367714Y-89352380D01*
X148129619Y-89352380D01*
X148034380Y-89304761D01*
X147986761Y-89257142D01*
X148843904Y-88352380D02*
X149177238Y-89352380D01*
X149510571Y-88352380D01*
D13*
X149697952Y-78471142D02*
X149031285Y-78471142D01*
X149031285Y-79518761D02*
X149031285Y-77518761D01*
X149983666Y-77518761D01*
X150650333Y-78947333D02*
X151602714Y-78947333D01*
X150459857Y-79518761D02*
X151126523Y-77518761D01*
X151793190Y-79518761D01*
X153126523Y-78471142D02*
X153412238Y-78566380D01*
X153507476Y-78661619D01*
X153602714Y-78852095D01*
X153602714Y-79137809D01*
X153507476Y-79328285D01*
X153412238Y-79423523D01*
X153221761Y-79518761D01*
X152459857Y-79518761D01*
X152459857Y-77518761D01*
X153126523Y-77518761D01*
X153317000Y-77614000D01*
X153412238Y-77709238D01*
X153507476Y-77899714D01*
X153507476Y-78090190D01*
X153412238Y-78280666D01*
X153317000Y-78375904D01*
X153126523Y-78471142D01*
X152459857Y-78471142D01*
X155412238Y-79518761D02*
X154459857Y-79518761D01*
X154459857Y-77518761D01*
X155983666Y-78947333D02*
X156936047Y-78947333D01*
X155793190Y-79518761D02*
X156459857Y-77518761D01*
X157126523Y-79518761D01*
X158459857Y-78471142D02*
X158745571Y-78566380D01*
X158840809Y-78661619D01*
X158936047Y-78852095D01*
X158936047Y-79137809D01*
X158840809Y-79328285D01*
X158745571Y-79423523D01*
X158555095Y-79518761D01*
X157793190Y-79518761D01*
X157793190Y-77518761D01*
X158459857Y-77518761D01*
X158650333Y-77614000D01*
X158745571Y-77709238D01*
X158840809Y-77899714D01*
X158840809Y-78090190D01*
X158745571Y-78280666D01*
X158650333Y-78375904D01*
X158459857Y-78471142D01*
X157793190Y-78471142D01*
X148745571Y-80818761D02*
X149888428Y-80818761D01*
X149317000Y-82818761D02*
X149317000Y-80818761D01*
X150936047Y-80818761D02*
X151317000Y-80818761D01*
X151507476Y-80914000D01*
X151697952Y-81104476D01*
X151793190Y-81485428D01*
X151793190Y-82152095D01*
X151697952Y-82533047D01*
X151507476Y-82723523D01*
X151317000Y-82818761D01*
X150936047Y-82818761D01*
X150745571Y-82723523D01*
X150555095Y-82533047D01*
X150459857Y-82152095D01*
X150459857Y-81485428D01*
X150555095Y-81104476D01*
X150745571Y-80914000D01*
X150936047Y-80818761D01*
X153793190Y-82818761D02*
X153126523Y-81866380D01*
X152650333Y-82818761D02*
X152650333Y-80818761D01*
X153412238Y-80818761D01*
X153602714Y-80914000D01*
X153697952Y-81009238D01*
X153793190Y-81199714D01*
X153793190Y-81485428D01*
X153697952Y-81675904D01*
X153602714Y-81771142D01*
X153412238Y-81866380D01*
X152650333Y-81866380D01*
X154650333Y-82818761D02*
X154650333Y-80818761D01*
X155602714Y-82818761D02*
X155602714Y-80818761D01*
X156745571Y-82818761D01*
X156745571Y-80818761D01*
X158078904Y-80818761D02*
X158459857Y-80818761D01*
X158650333Y-80914000D01*
X158840809Y-81104476D01*
X158936047Y-81485428D01*
X158936047Y-82152095D01*
X158840809Y-82533047D01*
X158650333Y-82723523D01*
X158459857Y-82818761D01*
X158078904Y-82818761D01*
X157888428Y-82723523D01*
X157697952Y-82533047D01*
X157602714Y-82152095D01*
X157602714Y-81485428D01*
X157697952Y-81104476D01*
X157888428Y-80914000D01*
X158078904Y-80818761D01*
X116983428Y-80026761D02*
X116983428Y-78026761D01*
X117650095Y-79455333D01*
X118316761Y-78026761D01*
X118316761Y-80026761D01*
X119269142Y-78979142D02*
X119935809Y-78979142D01*
X120221523Y-80026761D02*
X119269142Y-80026761D01*
X119269142Y-78026761D01*
X120221523Y-78026761D01*
X122221523Y-80026761D02*
X121554857Y-79074380D01*
X121078666Y-80026761D02*
X121078666Y-78026761D01*
X121840571Y-78026761D01*
X122031047Y-78122000D01*
X122126285Y-78217238D01*
X122221523Y-78407714D01*
X122221523Y-78693428D01*
X122126285Y-78883904D01*
X122031047Y-78979142D01*
X121840571Y-79074380D01*
X121078666Y-79074380D01*
X124221523Y-80026761D02*
X123554857Y-79074380D01*
X123078666Y-80026761D02*
X123078666Y-78026761D01*
X123840571Y-78026761D01*
X124031047Y-78122000D01*
X124126285Y-78217238D01*
X124221523Y-78407714D01*
X124221523Y-78693428D01*
X124126285Y-78883904D01*
X124031047Y-78979142D01*
X123840571Y-79074380D01*
X123078666Y-79074380D01*
X125459619Y-79074380D02*
X125459619Y-80026761D01*
X124792952Y-78026761D02*
X125459619Y-79074380D01*
X126126285Y-78026761D01*
X114364380Y-83136285D02*
X114269142Y-83231523D01*
X113983428Y-83326761D01*
X113792952Y-83326761D01*
X113507238Y-83231523D01*
X113316761Y-83041047D01*
X113221523Y-82850571D01*
X113126285Y-82469619D01*
X113126285Y-82183904D01*
X113221523Y-81802952D01*
X113316761Y-81612476D01*
X113507238Y-81422000D01*
X113792952Y-81326761D01*
X113983428Y-81326761D01*
X114269142Y-81422000D01*
X114364380Y-81517238D01*
X115221523Y-83326761D02*
X115221523Y-81326761D01*
X115221523Y-82279142D02*
X116364380Y-82279142D01*
X116364380Y-83326761D02*
X116364380Y-81326761D01*
X118459619Y-83326761D02*
X117792952Y-82374380D01*
X117316761Y-83326761D02*
X117316761Y-81326761D01*
X118078666Y-81326761D01*
X118269142Y-81422000D01*
X118364380Y-81517238D01*
X118459619Y-81707714D01*
X118459619Y-81993428D01*
X118364380Y-82183904D01*
X118269142Y-82279142D01*
X118078666Y-82374380D01*
X117316761Y-82374380D01*
X119316761Y-83326761D02*
X119316761Y-81326761D01*
X120173904Y-83231523D02*
X120459619Y-83326761D01*
X120935809Y-83326761D01*
X121126285Y-83231523D01*
X121221523Y-83136285D01*
X121316761Y-82945809D01*
X121316761Y-82755333D01*
X121221523Y-82564857D01*
X121126285Y-82469619D01*
X120935809Y-82374380D01*
X120554857Y-82279142D01*
X120364380Y-82183904D01*
X120269142Y-82088666D01*
X120173904Y-81898190D01*
X120173904Y-81707714D01*
X120269142Y-81517238D01*
X120364380Y-81422000D01*
X120554857Y-81326761D01*
X121031047Y-81326761D01*
X121316761Y-81422000D01*
X121888190Y-81326761D02*
X123031047Y-81326761D01*
X122459619Y-83326761D02*
X122459619Y-81326761D01*
X123697714Y-83326761D02*
X123697714Y-81326761D01*
X124364380Y-82755333D01*
X125031047Y-81326761D01*
X125031047Y-83326761D01*
X125888190Y-82755333D02*
X126840571Y-82755333D01*
X125697714Y-83326761D02*
X126364380Y-81326761D01*
X127031047Y-83326761D01*
X127602476Y-83231523D02*
X127888190Y-83326761D01*
X128364380Y-83326761D01*
X128554857Y-83231523D01*
X128650095Y-83136285D01*
X128745333Y-82945809D01*
X128745333Y-82755333D01*
X128650095Y-82564857D01*
X128554857Y-82469619D01*
X128364380Y-82374380D01*
X127983428Y-82279142D01*
X127792952Y-82183904D01*
X127697714Y-82088666D01*
X127602476Y-81898190D01*
X127602476Y-81707714D01*
X127697714Y-81517238D01*
X127792952Y-81422000D01*
X127983428Y-81326761D01*
X128459619Y-81326761D01*
X128745333Y-81422000D01*
X129602476Y-83136285D02*
X129697714Y-83231523D01*
X129602476Y-83326761D01*
X129507238Y-83231523D01*
X129602476Y-83136285D01*
X129602476Y-83326761D01*
X129602476Y-82564857D02*
X129507238Y-81422000D01*
X129602476Y-81326761D01*
X129697714Y-81422000D01*
X129602476Y-82564857D01*
X129602476Y-81326761D01*
D14*
X157043194Y-55295797D02*
X156717461Y-54400852D01*
X158596846Y-53716812D01*
X158255648Y-55563952D02*
X158483661Y-56190414D01*
X157596941Y-56817204D02*
X157271208Y-55922259D01*
X159150593Y-55238219D01*
X159476327Y-56133164D01*
X157890102Y-57622655D02*
X159769487Y-56938615D01*
X159932353Y-57386088D01*
X159940579Y-57687145D01*
X159826737Y-57931280D01*
X159680321Y-58085922D01*
X159354916Y-58305710D01*
X159086432Y-58403430D01*
X158695881Y-58444228D01*
X158484319Y-58419881D01*
X158240183Y-58306038D01*
X158052968Y-58070128D01*
X157890102Y-57622655D01*
X158753131Y-59436894D02*
X158696210Y-59558962D01*
X158574142Y-59502041D01*
X158631063Y-59379973D01*
X158753131Y-59436894D01*
X158574142Y-59502041D01*
X159290098Y-59241454D02*
X160331459Y-58761079D01*
X160453527Y-58818000D01*
X160396606Y-58940068D01*
X159290098Y-59241454D01*
X160453527Y-58818000D01*
X115817591Y-57845095D02*
X115491857Y-58740041D01*
X113612472Y-58056000D01*
X115061164Y-56860327D02*
X115289178Y-56233865D01*
X116371338Y-56323688D02*
X116045604Y-57218633D01*
X114166219Y-56534593D01*
X114491952Y-55639648D01*
X116664498Y-55518237D02*
X114785112Y-54834197D01*
X114947979Y-54386724D01*
X115135194Y-54150814D01*
X115379330Y-54036972D01*
X115590892Y-54012624D01*
X115981443Y-54053423D01*
X116249927Y-54151143D01*
X116575332Y-54370931D01*
X116721748Y-54525572D01*
X116835590Y-54769708D01*
X116827364Y-55070765D01*
X116664498Y-55518237D01*
X117169549Y-53573705D02*
X117291617Y-53516784D01*
X117348538Y-53638852D01*
X117226470Y-53695773D01*
X117169549Y-53573705D01*
X117348538Y-53638852D01*
X116632582Y-53378265D02*
X115526074Y-53076880D01*
X115469153Y-52954812D01*
X115591221Y-52897891D01*
X116632582Y-53378265D01*
X115469153Y-52954812D01*
D11*
X133033047Y-75906380D02*
X132556857Y-75906380D01*
X132509238Y-76382571D01*
X132556857Y-76334952D01*
X132652095Y-76287333D01*
X132890190Y-76287333D01*
X132985428Y-76334952D01*
X133033047Y-76382571D01*
X133080666Y-76477809D01*
X133080666Y-76715904D01*
X133033047Y-76811142D01*
X132985428Y-76858761D01*
X132890190Y-76906380D01*
X132652095Y-76906380D01*
X132556857Y-76858761D01*
X132509238Y-76811142D01*
X133985428Y-75906380D02*
X133509238Y-75906380D01*
X133461619Y-76382571D01*
X133509238Y-76334952D01*
X133604476Y-76287333D01*
X133842571Y-76287333D01*
X133937809Y-76334952D01*
X133985428Y-76382571D01*
X134033047Y-76477809D01*
X134033047Y-76715904D01*
X133985428Y-76811142D01*
X133937809Y-76858761D01*
X133842571Y-76906380D01*
X133604476Y-76906380D01*
X133509238Y-76858761D01*
X133461619Y-76811142D01*
X134937809Y-75906380D02*
X134461619Y-75906380D01*
X134414000Y-76382571D01*
X134461619Y-76334952D01*
X134556857Y-76287333D01*
X134794952Y-76287333D01*
X134890190Y-76334952D01*
X134937809Y-76382571D01*
X134985428Y-76477809D01*
X134985428Y-76715904D01*
X134937809Y-76811142D01*
X134890190Y-76858761D01*
X134794952Y-76906380D01*
X134556857Y-76906380D01*
X134461619Y-76858761D01*
X134414000Y-76811142D01*
X135414000Y-76811142D02*
X135461619Y-76858761D01*
X135414000Y-76906380D01*
X135366380Y-76858761D01*
X135414000Y-76811142D01*
X135414000Y-76906380D01*
X135414000Y-76287333D02*
X135461619Y-76334952D01*
X135414000Y-76382571D01*
X135366380Y-76334952D01*
X135414000Y-76287333D01*
X135414000Y-76382571D01*
X136652095Y-76906380D02*
X136652095Y-76239714D01*
X136652095Y-75906380D02*
X136604476Y-75954000D01*
X136652095Y-76001619D01*
X136699714Y-75954000D01*
X136652095Y-75906380D01*
X136652095Y-76001619D01*
X137271142Y-76906380D02*
X137175904Y-76858761D01*
X137128285Y-76763523D01*
X137128285Y-75906380D01*
X138271142Y-76239714D02*
X138652095Y-76239714D01*
X138414000Y-75906380D02*
X138414000Y-76763523D01*
X138461619Y-76858761D01*
X138556857Y-76906380D01*
X138652095Y-76906380D01*
X138985428Y-76906380D02*
X138985428Y-76239714D01*
X138985428Y-75906380D02*
X138937809Y-75954000D01*
X138985428Y-76001619D01*
X139033047Y-75954000D01*
X138985428Y-75906380D01*
X138985428Y-76001619D01*
X139461619Y-76906380D02*
X139461619Y-76239714D01*
X139461619Y-76334952D02*
X139509238Y-76287333D01*
X139604476Y-76239714D01*
X139747333Y-76239714D01*
X139842571Y-76287333D01*
X139890190Y-76382571D01*
X139890190Y-76906380D01*
X139890190Y-76382571D02*
X139937809Y-76287333D01*
X140033047Y-76239714D01*
X140175904Y-76239714D01*
X140271142Y-76287333D01*
X140318761Y-76382571D01*
X140318761Y-76906380D01*
X141175904Y-76858761D02*
X141080666Y-76906380D01*
X140890190Y-76906380D01*
X140794952Y-76858761D01*
X140747333Y-76763523D01*
X140747333Y-76382571D01*
X140794952Y-76287333D01*
X140890190Y-76239714D01*
X141080666Y-76239714D01*
X141175904Y-76287333D01*
X141223523Y-76382571D01*
X141223523Y-76477809D01*
X140747333Y-76573047D01*
X141652095Y-76906380D02*
X141652095Y-76239714D01*
X141652095Y-76430190D02*
X141699714Y-76334952D01*
X141747333Y-76287333D01*
X141842571Y-76239714D01*
X141937809Y-76239714D01*
X142271142Y-76811142D02*
X142318761Y-76858761D01*
X142271142Y-76906380D01*
X142223523Y-76858761D01*
X142271142Y-76811142D01*
X142271142Y-76906380D01*
X142271142Y-76525428D02*
X142223523Y-75954000D01*
X142271142Y-75906380D01*
X142318761Y-75954000D01*
X142271142Y-76525428D01*
X142271142Y-75906380D01*
X130826666Y-52728761D02*
X130731428Y-52776380D01*
X130540952Y-52776380D01*
X130445714Y-52728761D01*
X130398095Y-52681142D01*
X130350476Y-52585904D01*
X130350476Y-52300190D01*
X130398095Y-52204952D01*
X130445714Y-52157333D01*
X130540952Y-52109714D01*
X130731428Y-52109714D01*
X130826666Y-52157333D01*
X131398095Y-52776380D02*
X131302857Y-52728761D01*
X131255238Y-52681142D01*
X131207619Y-52585904D01*
X131207619Y-52300190D01*
X131255238Y-52204952D01*
X131302857Y-52157333D01*
X131398095Y-52109714D01*
X131540952Y-52109714D01*
X131636190Y-52157333D01*
X131683809Y-52204952D01*
X131731428Y-52300190D01*
X131731428Y-52585904D01*
X131683809Y-52681142D01*
X131636190Y-52728761D01*
X131540952Y-52776380D01*
X131398095Y-52776380D01*
X132160000Y-52109714D02*
X132160000Y-52776380D01*
X132160000Y-52204952D02*
X132207619Y-52157333D01*
X132302857Y-52109714D01*
X132445714Y-52109714D01*
X132540952Y-52157333D01*
X132588571Y-52252571D01*
X132588571Y-52776380D01*
X133493333Y-52776380D02*
X133493333Y-51776380D01*
X133493333Y-52728761D02*
X133398095Y-52776380D01*
X133207619Y-52776380D01*
X133112380Y-52728761D01*
X133064761Y-52681142D01*
X133017142Y-52585904D01*
X133017142Y-52300190D01*
X133064761Y-52204952D01*
X133112380Y-52157333D01*
X133207619Y-52109714D01*
X133398095Y-52109714D01*
X133493333Y-52157333D01*
X134350476Y-52728761D02*
X134255238Y-52776380D01*
X134064761Y-52776380D01*
X133969523Y-52728761D01*
X133921904Y-52633523D01*
X133921904Y-52252571D01*
X133969523Y-52157333D01*
X134064761Y-52109714D01*
X134255238Y-52109714D01*
X134350476Y-52157333D01*
X134398095Y-52252571D01*
X134398095Y-52347809D01*
X133921904Y-52443047D01*
X134779047Y-52728761D02*
X134874285Y-52776380D01*
X135064761Y-52776380D01*
X135160000Y-52728761D01*
X135207619Y-52633523D01*
X135207619Y-52585904D01*
X135160000Y-52490666D01*
X135064761Y-52443047D01*
X134921904Y-52443047D01*
X134826666Y-52395428D01*
X134779047Y-52300190D01*
X134779047Y-52252571D01*
X134826666Y-52157333D01*
X134921904Y-52109714D01*
X135064761Y-52109714D01*
X135160000Y-52157333D01*
X136064761Y-52776380D02*
X136064761Y-52252571D01*
X136017142Y-52157333D01*
X135921904Y-52109714D01*
X135731428Y-52109714D01*
X135636190Y-52157333D01*
X136064761Y-52728761D02*
X135969523Y-52776380D01*
X135731428Y-52776380D01*
X135636190Y-52728761D01*
X135588571Y-52633523D01*
X135588571Y-52538285D01*
X135636190Y-52443047D01*
X135731428Y-52395428D01*
X135969523Y-52395428D01*
X136064761Y-52347809D01*
X136398095Y-52109714D02*
X136779047Y-52109714D01*
X136540952Y-51776380D02*
X136540952Y-52633523D01*
X136588571Y-52728761D01*
X136683809Y-52776380D01*
X136779047Y-52776380D01*
X137255238Y-52776380D02*
X137160000Y-52728761D01*
X137112380Y-52681142D01*
X137064761Y-52585904D01*
X137064761Y-52300190D01*
X137112380Y-52204952D01*
X137160000Y-52157333D01*
X137255238Y-52109714D01*
X137398095Y-52109714D01*
X137493333Y-52157333D01*
X137540952Y-52204952D01*
X137588571Y-52300190D01*
X137588571Y-52585904D01*
X137540952Y-52681142D01*
X137493333Y-52728761D01*
X137398095Y-52776380D01*
X137255238Y-52776380D01*
X138017142Y-52776380D02*
X138017142Y-52109714D01*
X138017142Y-52300190D02*
X138064761Y-52204952D01*
X138112380Y-52157333D01*
X138207619Y-52109714D01*
X138302857Y-52109714D01*
X139017142Y-52728761D02*
X138921904Y-52776380D01*
X138731428Y-52776380D01*
X138636190Y-52728761D01*
X138588571Y-52633523D01*
X138588571Y-52252571D01*
X138636190Y-52157333D01*
X138731428Y-52109714D01*
X138921904Y-52109714D01*
X139017142Y-52157333D01*
X139064761Y-52252571D01*
X139064761Y-52347809D01*
X138588571Y-52443047D01*
X140683809Y-52109714D02*
X140683809Y-52776380D01*
X140445714Y-51728761D02*
X140207619Y-52443047D01*
X140826666Y-52443047D01*
X141207619Y-52681142D02*
X141255238Y-52728761D01*
X141207619Y-52776380D01*
X141160000Y-52728761D01*
X141207619Y-52681142D01*
X141207619Y-52776380D01*
X141588571Y-51776380D02*
X142255238Y-51776380D01*
X141826666Y-52776380D01*
X143064761Y-52109714D02*
X143064761Y-52776380D01*
X142636190Y-52109714D02*
X142636190Y-52633523D01*
X142683809Y-52728761D01*
X142779047Y-52776380D01*
X142921904Y-52776380D01*
X143017142Y-52728761D01*
X143064761Y-52681142D01*
X143874285Y-52252571D02*
X143540952Y-52252571D01*
X143540952Y-52776380D02*
X143540952Y-51776380D01*
X144017142Y-51776380D01*
X119324380Y-66658571D02*
X118657714Y-66658571D01*
X118848190Y-66658571D02*
X118752952Y-66610952D01*
X118705333Y-66563333D01*
X118657714Y-66468095D01*
X118657714Y-66372857D01*
X119276761Y-65658571D02*
X119324380Y-65753809D01*
X119324380Y-65944285D01*
X119276761Y-66039523D01*
X119181523Y-66087142D01*
X118800571Y-66087142D01*
X118705333Y-66039523D01*
X118657714Y-65944285D01*
X118657714Y-65753809D01*
X118705333Y-65658571D01*
X118800571Y-65610952D01*
X118895809Y-65610952D01*
X118991047Y-66087142D01*
X119276761Y-65230000D02*
X119324380Y-65134761D01*
X119324380Y-64944285D01*
X119276761Y-64849047D01*
X119181523Y-64801428D01*
X119133904Y-64801428D01*
X119038666Y-64849047D01*
X118991047Y-64944285D01*
X118991047Y-65087142D01*
X118943428Y-65182380D01*
X118848190Y-65230000D01*
X118800571Y-65230000D01*
X118705333Y-65182380D01*
X118657714Y-65087142D01*
X118657714Y-64944285D01*
X118705333Y-64849047D01*
X119324380Y-64372857D02*
X118657714Y-64372857D01*
X118324380Y-64372857D02*
X118372000Y-64420476D01*
X118419619Y-64372857D01*
X118372000Y-64325238D01*
X118324380Y-64372857D01*
X118419619Y-64372857D01*
X119276761Y-63944285D02*
X119324380Y-63849047D01*
X119324380Y-63658571D01*
X119276761Y-63563333D01*
X119181523Y-63515714D01*
X119133904Y-63515714D01*
X119038666Y-63563333D01*
X118991047Y-63658571D01*
X118991047Y-63801428D01*
X118943428Y-63896666D01*
X118848190Y-63944285D01*
X118800571Y-63944285D01*
X118705333Y-63896666D01*
X118657714Y-63801428D01*
X118657714Y-63658571D01*
X118705333Y-63563333D01*
X118657714Y-63230000D02*
X118657714Y-62849047D01*
X118324380Y-63087142D02*
X119181523Y-63087142D01*
X119276761Y-63039523D01*
X119324380Y-62944285D01*
X119324380Y-62849047D01*
X119276761Y-62134761D02*
X119324380Y-62230000D01*
X119324380Y-62420476D01*
X119276761Y-62515714D01*
X119181523Y-62563333D01*
X118800571Y-62563333D01*
X118705333Y-62515714D01*
X118657714Y-62420476D01*
X118657714Y-62230000D01*
X118705333Y-62134761D01*
X118800571Y-62087142D01*
X118895809Y-62087142D01*
X118991047Y-62563333D01*
X118657714Y-61658571D02*
X119324380Y-61658571D01*
X118752952Y-61658571D02*
X118705333Y-61610952D01*
X118657714Y-61515714D01*
X118657714Y-61372857D01*
X118705333Y-61277619D01*
X118800571Y-61230000D01*
X119324380Y-61230000D01*
X118657714Y-60849047D02*
X118657714Y-60325238D01*
X119324380Y-60849047D01*
X119324380Y-60325238D01*
X119324380Y-59515714D02*
X118800571Y-59515714D01*
X118705333Y-59563333D01*
X118657714Y-59658571D01*
X118657714Y-59849047D01*
X118705333Y-59944285D01*
X119276761Y-59515714D02*
X119324380Y-59610952D01*
X119324380Y-59849047D01*
X119276761Y-59944285D01*
X119181523Y-59991904D01*
X119086285Y-59991904D01*
X118991047Y-59944285D01*
X118943428Y-59849047D01*
X118943428Y-59610952D01*
X118895809Y-59515714D01*
X119324380Y-57753809D02*
X119324380Y-58325238D01*
X119324380Y-58039523D02*
X118324380Y-58039523D01*
X118467238Y-58134761D01*
X118562476Y-58230000D01*
X118610095Y-58325238D01*
X132731428Y-39568380D02*
X132731428Y-38901714D01*
X132731428Y-39092190D02*
X132779047Y-38996952D01*
X132826666Y-38949333D01*
X132921904Y-38901714D01*
X133017142Y-38901714D01*
X133731428Y-39520761D02*
X133636190Y-39568380D01*
X133445714Y-39568380D01*
X133350476Y-39520761D01*
X133302857Y-39425523D01*
X133302857Y-39044571D01*
X133350476Y-38949333D01*
X133445714Y-38901714D01*
X133636190Y-38901714D01*
X133731428Y-38949333D01*
X133779047Y-39044571D01*
X133779047Y-39139809D01*
X133302857Y-39235047D01*
X134160000Y-39520761D02*
X134255238Y-39568380D01*
X134445714Y-39568380D01*
X134540952Y-39520761D01*
X134588571Y-39425523D01*
X134588571Y-39377904D01*
X134540952Y-39282666D01*
X134445714Y-39235047D01*
X134302857Y-39235047D01*
X134207619Y-39187428D01*
X134160000Y-39092190D01*
X134160000Y-39044571D01*
X134207619Y-38949333D01*
X134302857Y-38901714D01*
X134445714Y-38901714D01*
X134540952Y-38949333D01*
X135017142Y-39568380D02*
X135017142Y-38901714D01*
X135017142Y-38568380D02*
X134969523Y-38616000D01*
X135017142Y-38663619D01*
X135064761Y-38616000D01*
X135017142Y-38568380D01*
X135017142Y-38663619D01*
X135445714Y-39520761D02*
X135540952Y-39568380D01*
X135731428Y-39568380D01*
X135826666Y-39520761D01*
X135874285Y-39425523D01*
X135874285Y-39377904D01*
X135826666Y-39282666D01*
X135731428Y-39235047D01*
X135588571Y-39235047D01*
X135493333Y-39187428D01*
X135445714Y-39092190D01*
X135445714Y-39044571D01*
X135493333Y-38949333D01*
X135588571Y-38901714D01*
X135731428Y-38901714D01*
X135826666Y-38949333D01*
X136160000Y-38901714D02*
X136540952Y-38901714D01*
X136302857Y-38568380D02*
X136302857Y-39425523D01*
X136350476Y-39520761D01*
X136445714Y-39568380D01*
X136540952Y-39568380D01*
X137255238Y-39520761D02*
X137160000Y-39568380D01*
X136969523Y-39568380D01*
X136874285Y-39520761D01*
X136826666Y-39425523D01*
X136826666Y-39044571D01*
X136874285Y-38949333D01*
X136969523Y-38901714D01*
X137160000Y-38901714D01*
X137255238Y-38949333D01*
X137302857Y-39044571D01*
X137302857Y-39139809D01*
X136826666Y-39235047D01*
X137731428Y-38901714D02*
X137731428Y-39568380D01*
X137731428Y-38996952D02*
X137779047Y-38949333D01*
X137874285Y-38901714D01*
X138017142Y-38901714D01*
X138112380Y-38949333D01*
X138160000Y-39044571D01*
X138160000Y-39568380D01*
X138540952Y-38901714D02*
X139064761Y-38901714D01*
X138540952Y-39568380D01*
X139064761Y-39568380D01*
X139874285Y-39568380D02*
X139874285Y-39044571D01*
X139826666Y-38949333D01*
X139731428Y-38901714D01*
X139540952Y-38901714D01*
X139445714Y-38949333D01*
X139874285Y-39520761D02*
X139779047Y-39568380D01*
X139540952Y-39568380D01*
X139445714Y-39520761D01*
X139398095Y-39425523D01*
X139398095Y-39330285D01*
X139445714Y-39235047D01*
X139540952Y-39187428D01*
X139779047Y-39187428D01*
X139874285Y-39139809D01*
X141064761Y-38663619D02*
X141112380Y-38616000D01*
X141207619Y-38568380D01*
X141445714Y-38568380D01*
X141540952Y-38616000D01*
X141588571Y-38663619D01*
X141636190Y-38758857D01*
X141636190Y-38854095D01*
X141588571Y-38996952D01*
X141017142Y-39568380D01*
X141636190Y-39568380D01*
X132731428Y-45664380D02*
X132731428Y-44997714D01*
X132731428Y-45188190D02*
X132779047Y-45092952D01*
X132826666Y-45045333D01*
X132921904Y-44997714D01*
X133017142Y-44997714D01*
X133731428Y-45616761D02*
X133636190Y-45664380D01*
X133445714Y-45664380D01*
X133350476Y-45616761D01*
X133302857Y-45521523D01*
X133302857Y-45140571D01*
X133350476Y-45045333D01*
X133445714Y-44997714D01*
X133636190Y-44997714D01*
X133731428Y-45045333D01*
X133779047Y-45140571D01*
X133779047Y-45235809D01*
X133302857Y-45331047D01*
X134160000Y-45616761D02*
X134255238Y-45664380D01*
X134445714Y-45664380D01*
X134540952Y-45616761D01*
X134588571Y-45521523D01*
X134588571Y-45473904D01*
X134540952Y-45378666D01*
X134445714Y-45331047D01*
X134302857Y-45331047D01*
X134207619Y-45283428D01*
X134160000Y-45188190D01*
X134160000Y-45140571D01*
X134207619Y-45045333D01*
X134302857Y-44997714D01*
X134445714Y-44997714D01*
X134540952Y-45045333D01*
X135017142Y-45664380D02*
X135017142Y-44997714D01*
X135017142Y-44664380D02*
X134969523Y-44712000D01*
X135017142Y-44759619D01*
X135064761Y-44712000D01*
X135017142Y-44664380D01*
X135017142Y-44759619D01*
X135445714Y-45616761D02*
X135540952Y-45664380D01*
X135731428Y-45664380D01*
X135826666Y-45616761D01*
X135874285Y-45521523D01*
X135874285Y-45473904D01*
X135826666Y-45378666D01*
X135731428Y-45331047D01*
X135588571Y-45331047D01*
X135493333Y-45283428D01*
X135445714Y-45188190D01*
X135445714Y-45140571D01*
X135493333Y-45045333D01*
X135588571Y-44997714D01*
X135731428Y-44997714D01*
X135826666Y-45045333D01*
X136160000Y-44997714D02*
X136540952Y-44997714D01*
X136302857Y-44664380D02*
X136302857Y-45521523D01*
X136350476Y-45616761D01*
X136445714Y-45664380D01*
X136540952Y-45664380D01*
X137255238Y-45616761D02*
X137160000Y-45664380D01*
X136969523Y-45664380D01*
X136874285Y-45616761D01*
X136826666Y-45521523D01*
X136826666Y-45140571D01*
X136874285Y-45045333D01*
X136969523Y-44997714D01*
X137160000Y-44997714D01*
X137255238Y-45045333D01*
X137302857Y-45140571D01*
X137302857Y-45235809D01*
X136826666Y-45331047D01*
X137731428Y-44997714D02*
X137731428Y-45664380D01*
X137731428Y-45092952D02*
X137779047Y-45045333D01*
X137874285Y-44997714D01*
X138017142Y-44997714D01*
X138112380Y-45045333D01*
X138160000Y-45140571D01*
X138160000Y-45664380D01*
X138540952Y-44997714D02*
X139064761Y-44997714D01*
X138540952Y-45664380D01*
X139064761Y-45664380D01*
X139874285Y-45664380D02*
X139874285Y-45140571D01*
X139826666Y-45045333D01*
X139731428Y-44997714D01*
X139540952Y-44997714D01*
X139445714Y-45045333D01*
X139874285Y-45616761D02*
X139779047Y-45664380D01*
X139540952Y-45664380D01*
X139445714Y-45616761D01*
X139398095Y-45521523D01*
X139398095Y-45426285D01*
X139445714Y-45331047D01*
X139540952Y-45283428D01*
X139779047Y-45283428D01*
X139874285Y-45235809D01*
X141017142Y-44664380D02*
X141636190Y-44664380D01*
X141302857Y-45045333D01*
X141445714Y-45045333D01*
X141540952Y-45092952D01*
X141588571Y-45140571D01*
X141636190Y-45235809D01*
X141636190Y-45473904D01*
X141588571Y-45569142D01*
X141540952Y-45616761D01*
X141445714Y-45664380D01*
X141160000Y-45664380D01*
X141064761Y-45616761D01*
X141017142Y-45569142D01*
D10*
X150480000Y-67300000D02*
X154320000Y-67300000D01*
X154320000Y-67300000D02*
X154320000Y-57160000D01*
X154320000Y-57160000D02*
X150480000Y-57160000D01*
X150480000Y-57160000D02*
X150480000Y-67300000D01*
X152400000Y-70950000D02*
X152400000Y-67300000D01*
X152400000Y-53510000D02*
X152400000Y-57160000D01*
X142230000Y-43830000D02*
X142230000Y-39990000D01*
X142230000Y-39990000D02*
X132090000Y-39990000D01*
X132090000Y-39990000D02*
X132090000Y-43830000D01*
X132090000Y-43830000D02*
X142230000Y-43830000D01*
X145880000Y-41910000D02*
X142230000Y-41910000D01*
X128440000Y-41910000D02*
X132090000Y-41910000D01*
X140410000Y-56769000D02*
G75*
G03X140410000Y-56769000I-3270000J0D01*
G01*
X137140000Y-53539000D02*
X137140000Y-59999000D01*
X137180000Y-53539000D02*
X137180000Y-59999000D01*
X137220000Y-53539000D02*
X137220000Y-59999000D01*
X137260000Y-53541000D02*
X137260000Y-59997000D01*
X137300000Y-53542000D02*
X137300000Y-59996000D01*
X137340000Y-53545000D02*
X137340000Y-59993000D01*
X137380000Y-53547000D02*
X137380000Y-55729000D01*
X137380000Y-57809000D02*
X137380000Y-59991000D01*
X137420000Y-53551000D02*
X137420000Y-55729000D01*
X137420000Y-57809000D02*
X137420000Y-59987000D01*
X137460000Y-53554000D02*
X137460000Y-55729000D01*
X137460000Y-57809000D02*
X137460000Y-59984000D01*
X137500000Y-53558000D02*
X137500000Y-55729000D01*
X137500000Y-57809000D02*
X137500000Y-59980000D01*
X137540000Y-53563000D02*
X137540000Y-55729000D01*
X137540000Y-57809000D02*
X137540000Y-59975000D01*
X137580000Y-53568000D02*
X137580000Y-55729000D01*
X137580000Y-57809000D02*
X137580000Y-59970000D01*
X137620000Y-53574000D02*
X137620000Y-55729000D01*
X137620000Y-57809000D02*
X137620000Y-59964000D01*
X137660000Y-53580000D02*
X137660000Y-55729000D01*
X137660000Y-57809000D02*
X137660000Y-59958000D01*
X137700000Y-53587000D02*
X137700000Y-55729000D01*
X137700000Y-57809000D02*
X137700000Y-59951000D01*
X137740000Y-53594000D02*
X137740000Y-55729000D01*
X137740000Y-57809000D02*
X137740000Y-59944000D01*
X137780000Y-53602000D02*
X137780000Y-55729000D01*
X137780000Y-57809000D02*
X137780000Y-59936000D01*
X137820000Y-53610000D02*
X137820000Y-55729000D01*
X137820000Y-57809000D02*
X137820000Y-59928000D01*
X137861000Y-53619000D02*
X137861000Y-55729000D01*
X137861000Y-57809000D02*
X137861000Y-59919000D01*
X137901000Y-53628000D02*
X137901000Y-55729000D01*
X137901000Y-57809000D02*
X137901000Y-59910000D01*
X137941000Y-53638000D02*
X137941000Y-55729000D01*
X137941000Y-57809000D02*
X137941000Y-59900000D01*
X137981000Y-53648000D02*
X137981000Y-55729000D01*
X137981000Y-57809000D02*
X137981000Y-59890000D01*
X138021000Y-53659000D02*
X138021000Y-55729000D01*
X138021000Y-57809000D02*
X138021000Y-59879000D01*
X138061000Y-53671000D02*
X138061000Y-55729000D01*
X138061000Y-57809000D02*
X138061000Y-59867000D01*
X138101000Y-53683000D02*
X138101000Y-55729000D01*
X138101000Y-57809000D02*
X138101000Y-59855000D01*
X138141000Y-53695000D02*
X138141000Y-55729000D01*
X138141000Y-57809000D02*
X138141000Y-59843000D01*
X138181000Y-53708000D02*
X138181000Y-55729000D01*
X138181000Y-57809000D02*
X138181000Y-59830000D01*
X138221000Y-53722000D02*
X138221000Y-55729000D01*
X138221000Y-57809000D02*
X138221000Y-59816000D01*
X138261000Y-53736000D02*
X138261000Y-55729000D01*
X138261000Y-57809000D02*
X138261000Y-59802000D01*
X138301000Y-53751000D02*
X138301000Y-55729000D01*
X138301000Y-57809000D02*
X138301000Y-59787000D01*
X138341000Y-53767000D02*
X138341000Y-55729000D01*
X138341000Y-57809000D02*
X138341000Y-59771000D01*
X138381000Y-53783000D02*
X138381000Y-55729000D01*
X138381000Y-57809000D02*
X138381000Y-59755000D01*
X138421000Y-53799000D02*
X138421000Y-55729000D01*
X138421000Y-57809000D02*
X138421000Y-59739000D01*
X138461000Y-53817000D02*
X138461000Y-55729000D01*
X138461000Y-57809000D02*
X138461000Y-59721000D01*
X138501000Y-53835000D02*
X138501000Y-55729000D01*
X138501000Y-57809000D02*
X138501000Y-59703000D01*
X138541000Y-53853000D02*
X138541000Y-55729000D01*
X138541000Y-57809000D02*
X138541000Y-59685000D01*
X138581000Y-53873000D02*
X138581000Y-55729000D01*
X138581000Y-57809000D02*
X138581000Y-59665000D01*
X138621000Y-53893000D02*
X138621000Y-55729000D01*
X138621000Y-57809000D02*
X138621000Y-59645000D01*
X138661000Y-53913000D02*
X138661000Y-55729000D01*
X138661000Y-57809000D02*
X138661000Y-59625000D01*
X138701000Y-53935000D02*
X138701000Y-55729000D01*
X138701000Y-57809000D02*
X138701000Y-59603000D01*
X138741000Y-53957000D02*
X138741000Y-55729000D01*
X138741000Y-57809000D02*
X138741000Y-59581000D01*
X138781000Y-53979000D02*
X138781000Y-55729000D01*
X138781000Y-57809000D02*
X138781000Y-59559000D01*
X138821000Y-54003000D02*
X138821000Y-55729000D01*
X138821000Y-57809000D02*
X138821000Y-59535000D01*
X138861000Y-54027000D02*
X138861000Y-55729000D01*
X138861000Y-57809000D02*
X138861000Y-59511000D01*
X138901000Y-54053000D02*
X138901000Y-55729000D01*
X138901000Y-57809000D02*
X138901000Y-59485000D01*
X138941000Y-54079000D02*
X138941000Y-55729000D01*
X138941000Y-57809000D02*
X138941000Y-59459000D01*
X138981000Y-54105000D02*
X138981000Y-55729000D01*
X138981000Y-57809000D02*
X138981000Y-59433000D01*
X139021000Y-54133000D02*
X139021000Y-55729000D01*
X139021000Y-57809000D02*
X139021000Y-59405000D01*
X139061000Y-54162000D02*
X139061000Y-55729000D01*
X139061000Y-57809000D02*
X139061000Y-59376000D01*
X139101000Y-54191000D02*
X139101000Y-55729000D01*
X139101000Y-57809000D02*
X139101000Y-59347000D01*
X139141000Y-54221000D02*
X139141000Y-55729000D01*
X139141000Y-57809000D02*
X139141000Y-59317000D01*
X139181000Y-54253000D02*
X139181000Y-55729000D01*
X139181000Y-57809000D02*
X139181000Y-59285000D01*
X139221000Y-54285000D02*
X139221000Y-55729000D01*
X139221000Y-57809000D02*
X139221000Y-59253000D01*
X139261000Y-54319000D02*
X139261000Y-55729000D01*
X139261000Y-57809000D02*
X139261000Y-59219000D01*
X139301000Y-54353000D02*
X139301000Y-55729000D01*
X139301000Y-57809000D02*
X139301000Y-59185000D01*
X139341000Y-54389000D02*
X139341000Y-55729000D01*
X139341000Y-57809000D02*
X139341000Y-59149000D01*
X139381000Y-54426000D02*
X139381000Y-55729000D01*
X139381000Y-57809000D02*
X139381000Y-59112000D01*
X139421000Y-54464000D02*
X139421000Y-55729000D01*
X139421000Y-57809000D02*
X139421000Y-59074000D01*
X139461000Y-54504000D02*
X139461000Y-59034000D01*
X139501000Y-54545000D02*
X139501000Y-58993000D01*
X139541000Y-54587000D02*
X139541000Y-58951000D01*
X139581000Y-54632000D02*
X139581000Y-58906000D01*
X139621000Y-54677000D02*
X139621000Y-58861000D01*
X139661000Y-54725000D02*
X139661000Y-58813000D01*
X139701000Y-54774000D02*
X139701000Y-58764000D01*
X139741000Y-54825000D02*
X139741000Y-58713000D01*
X139781000Y-54879000D02*
X139781000Y-58659000D01*
X139821000Y-54935000D02*
X139821000Y-58603000D01*
X139861000Y-54993000D02*
X139861000Y-58545000D01*
X139901000Y-55055000D02*
X139901000Y-58483000D01*
X139941000Y-55119000D02*
X139941000Y-58419000D01*
X139981000Y-55188000D02*
X139981000Y-58350000D01*
X140021000Y-55260000D02*
X140021000Y-58278000D01*
X140061000Y-55337000D02*
X140061000Y-58201000D01*
X140101000Y-55419000D02*
X140101000Y-58119000D01*
X140141000Y-55507000D02*
X140141000Y-58031000D01*
X140181000Y-55604000D02*
X140181000Y-57934000D01*
X140221000Y-55710000D02*
X140221000Y-57828000D01*
X140261000Y-55829000D02*
X140261000Y-57709000D01*
X140301000Y-55967000D02*
X140301000Y-57571000D01*
X140341000Y-56136000D02*
X140341000Y-57402000D01*
X140381000Y-56367000D02*
X140381000Y-57171000D01*
X133639759Y-54930000D02*
X134269759Y-54930000D01*
X133954759Y-54615000D02*
X133954759Y-55245000D01*
X111780000Y-63775000D02*
X111780000Y-60685000D01*
X111720000Y-62230000D02*
G75*
G03X111720000Y-62230000I-2500000J0D01*
G01*
X106230000Y-62230462D02*
G75*
G02X111780000Y-60685170I2990000J462D01*
G01*
X106230000Y-62229538D02*
G75*
G03X111780000Y-63774830I2990000J-462D01*
G01*
X169360000Y-60960462D02*
G75*
G03X163810000Y-59415170I-2990000J462D01*
G01*
X169360000Y-60959538D02*
G75*
G02X163810000Y-62504830I-2990000J-462D01*
G01*
X168870000Y-60960000D02*
G75*
G03X168870000Y-60960000I-2500000J0D01*
G01*
X163810000Y-59415000D02*
X163810000Y-62505000D01*
X121920000Y-53510000D02*
X121920000Y-57160000D01*
X121920000Y-70950000D02*
X121920000Y-67300000D01*
X120000000Y-57160000D02*
X120000000Y-67300000D01*
X123840000Y-57160000D02*
X120000000Y-57160000D01*
X123840000Y-67300000D02*
X123840000Y-57160000D01*
X120000000Y-67300000D02*
X123840000Y-67300000D01*
X145626000Y-48260000D02*
X141976000Y-48260000D01*
X128186000Y-48260000D02*
X131836000Y-48260000D01*
X141976000Y-46340000D02*
X131836000Y-46340000D01*
X141976000Y-50180000D02*
X141976000Y-46340000D01*
X131836000Y-50180000D02*
X141976000Y-50180000D01*
X131836000Y-46340000D02*
X131836000Y-50180000D01*
X142554000Y-69580000D02*
G75*
G02X142554000Y-67580000I0J1000000D01*
G01*
X142554000Y-67580000D02*
X142554000Y-65930000D01*
X142554000Y-65930000D02*
X132274000Y-65930000D01*
X132274000Y-65930000D02*
X132274000Y-71230000D01*
X132274000Y-71230000D02*
X142554000Y-71230000D01*
X142554000Y-71230000D02*
X142554000Y-69580000D01*
X113050000Y-54885000D02*
X113050000Y-51795000D01*
X112990000Y-53340000D02*
G75*
G03X112990000Y-53340000I-2500000J0D01*
G01*
X107500000Y-53340462D02*
G75*
G02X113050000Y-51795170I2990000J462D01*
G01*
X107500000Y-53339538D02*
G75*
G03X113050000Y-54884830I2990000J-462D01*
G01*
X160635000Y-51160000D02*
X160635000Y-54250000D01*
X165695000Y-52705000D02*
G75*
G03X165695000Y-52705000I-2500000J0D01*
G01*
X166185000Y-52704538D02*
G75*
G02X160635000Y-54249830I-2990000J-462D01*
G01*
X166185000Y-52705462D02*
G75*
G03X160635000Y-51160170I-2990000J462D01*
G01*
X112580000Y-45719538D02*
G75*
G03X118130000Y-47264830I2990000J-462D01*
G01*
X112580000Y-45720462D02*
G75*
G02X118130000Y-44175170I2990000J462D01*
G01*
X118070000Y-45720000D02*
G75*
G03X118070000Y-45720000I-2500000J0D01*
G01*
X118130000Y-47265000D02*
X118130000Y-44175000D01*
X161740000Y-45720462D02*
G75*
G03X156190000Y-44175170I-2990000J462D01*
G01*
X161740000Y-45719538D02*
G75*
G02X156190000Y-47264830I-2990000J-462D01*
G01*
X161250000Y-45720000D02*
G75*
G03X161250000Y-45720000I-2500000J0D01*
G01*
X156190000Y-44175000D02*
X156190000Y-47265000D01*
X143336615Y-94484160D02*
G75*
G02X142422000Y-94100000I-124615J984160D01*
G01*
X132507385Y-94484160D02*
G75*
G03X133422000Y-94100000I124615J984160D01*
G01*
X144672000Y-92950000D02*
G75*
G02X143222000Y-94500000I-1500000J-50000D01*
G01*
X131172000Y-92950000D02*
G75*
G03X132622000Y-94500000I1500000J-50000D01*
G01*
X144672000Y-90700000D02*
X144672000Y-93000000D01*
X131172000Y-90700000D02*
X131172000Y-93000000D01*
X131172000Y-87100000D02*
X131172000Y-85450000D01*
X131172000Y-85450000D02*
X133772000Y-82850000D01*
X133772000Y-82850000D02*
X133772000Y-82050000D01*
X133772000Y-82050000D02*
X142072000Y-82050000D01*
X142072000Y-82050000D02*
X142072000Y-82850000D01*
X142072000Y-82850000D02*
X144672000Y-85450000D01*
X144672000Y-85450000D02*
X144672000Y-87100000D01*
D11*
X152852380Y-62396666D02*
X152376190Y-62730000D01*
X152852380Y-62968095D02*
X151852380Y-62968095D01*
X151852380Y-62587142D01*
X151900000Y-62491904D01*
X151947619Y-62444285D01*
X152042857Y-62396666D01*
X152185714Y-62396666D01*
X152280952Y-62444285D01*
X152328571Y-62491904D01*
X152376190Y-62587142D01*
X152376190Y-62968095D01*
X152185714Y-61539523D02*
X152852380Y-61539523D01*
X151804761Y-61777619D02*
X152519047Y-62015714D01*
X152519047Y-61396666D01*
X136739333Y-42362380D02*
X136406000Y-41886190D01*
X136167904Y-42362380D02*
X136167904Y-41362380D01*
X136548857Y-41362380D01*
X136644095Y-41410000D01*
X136691714Y-41457619D01*
X136739333Y-41552857D01*
X136739333Y-41695714D01*
X136691714Y-41790952D01*
X136644095Y-41838571D01*
X136548857Y-41886190D01*
X136167904Y-41886190D01*
X137120285Y-41457619D02*
X137167904Y-41410000D01*
X137263142Y-41362380D01*
X137501238Y-41362380D01*
X137596476Y-41410000D01*
X137644095Y-41457619D01*
X137691714Y-41552857D01*
X137691714Y-41648095D01*
X137644095Y-41790952D01*
X137072666Y-42362380D01*
X137691714Y-42362380D01*
X141565333Y-56999142D02*
X141517714Y-57046761D01*
X141374857Y-57094380D01*
X141279619Y-57094380D01*
X141136761Y-57046761D01*
X141041523Y-56951523D01*
X140993904Y-56856285D01*
X140946285Y-56665809D01*
X140946285Y-56522952D01*
X140993904Y-56332476D01*
X141041523Y-56237238D01*
X141136761Y-56142000D01*
X141279619Y-56094380D01*
X141374857Y-56094380D01*
X141517714Y-56142000D01*
X141565333Y-56189619D01*
X142517714Y-57094380D02*
X141946285Y-57094380D01*
X142232000Y-57094380D02*
X142232000Y-56094380D01*
X142136761Y-56237238D01*
X142041523Y-56332476D01*
X141946285Y-56380095D01*
X108481904Y-66642380D02*
X108481904Y-65642380D01*
X108720000Y-65642380D01*
X108862857Y-65690000D01*
X108958095Y-65785238D01*
X109005714Y-65880476D01*
X109053333Y-66070952D01*
X109053333Y-66213809D01*
X109005714Y-66404285D01*
X108958095Y-66499523D01*
X108862857Y-66594761D01*
X108720000Y-66642380D01*
X108481904Y-66642380D01*
X110005714Y-66642380D02*
X109434285Y-66642380D01*
X109720000Y-66642380D02*
X109720000Y-65642380D01*
X109624761Y-65785238D01*
X109529523Y-65880476D01*
X109434285Y-65928095D01*
X165631904Y-65476380D02*
X165631904Y-64476380D01*
X165870000Y-64476380D01*
X166012857Y-64524000D01*
X166108095Y-64619238D01*
X166155714Y-64714476D01*
X166203333Y-64904952D01*
X166203333Y-65047809D01*
X166155714Y-65238285D01*
X166108095Y-65333523D01*
X166012857Y-65428761D01*
X165870000Y-65476380D01*
X165631904Y-65476380D01*
X166584285Y-64571619D02*
X166631904Y-64524000D01*
X166727142Y-64476380D01*
X166965238Y-64476380D01*
X167060476Y-64524000D01*
X167108095Y-64571619D01*
X167155714Y-64666857D01*
X167155714Y-64762095D01*
X167108095Y-64904952D01*
X166536666Y-65476380D01*
X167155714Y-65476380D01*
X122372380Y-62396666D02*
X121896190Y-62730000D01*
X122372380Y-62968095D02*
X121372380Y-62968095D01*
X121372380Y-62587142D01*
X121420000Y-62491904D01*
X121467619Y-62444285D01*
X121562857Y-62396666D01*
X121705714Y-62396666D01*
X121800952Y-62444285D01*
X121848571Y-62491904D01*
X121896190Y-62587142D01*
X121896190Y-62968095D01*
X122372380Y-61444285D02*
X122372380Y-62015714D01*
X122372380Y-61730000D02*
X121372380Y-61730000D01*
X121515238Y-61825238D01*
X121610476Y-61920476D01*
X121658095Y-62015714D01*
X136485333Y-48712380D02*
X136152000Y-48236190D01*
X135913904Y-48712380D02*
X135913904Y-47712380D01*
X136294857Y-47712380D01*
X136390095Y-47760000D01*
X136437714Y-47807619D01*
X136485333Y-47902857D01*
X136485333Y-48045714D01*
X136437714Y-48140952D01*
X136390095Y-48188571D01*
X136294857Y-48236190D01*
X135913904Y-48236190D01*
X136818666Y-47712380D02*
X137437714Y-47712380D01*
X137104380Y-48093333D01*
X137247238Y-48093333D01*
X137342476Y-48140952D01*
X137390095Y-48188571D01*
X137437714Y-48283809D01*
X137437714Y-48521904D01*
X137390095Y-48617142D01*
X137342476Y-48664761D01*
X137247238Y-48712380D01*
X136961523Y-48712380D01*
X136866285Y-48664761D01*
X136818666Y-48617142D01*
X136398095Y-68286380D02*
X136398095Y-69095904D01*
X136445714Y-69191142D01*
X136493333Y-69238761D01*
X136588571Y-69286380D01*
X136779047Y-69286380D01*
X136874285Y-69238761D01*
X136921904Y-69191142D01*
X136969523Y-69095904D01*
X136969523Y-68286380D01*
X137969523Y-69286380D02*
X137398095Y-69286380D01*
X137683809Y-69286380D02*
X137683809Y-68286380D01*
X137588571Y-68429238D01*
X137493333Y-68524476D01*
X137398095Y-68572095D01*
X109751904Y-57752380D02*
X109751904Y-56752380D01*
X109990000Y-56752380D01*
X110132857Y-56800000D01*
X110228095Y-56895238D01*
X110275714Y-56990476D01*
X110323333Y-57180952D01*
X110323333Y-57323809D01*
X110275714Y-57514285D01*
X110228095Y-57609523D01*
X110132857Y-57704761D01*
X109990000Y-57752380D01*
X109751904Y-57752380D01*
X110656666Y-56752380D02*
X111275714Y-56752380D01*
X110942380Y-57133333D01*
X111085238Y-57133333D01*
X111180476Y-57180952D01*
X111228095Y-57228571D01*
X111275714Y-57323809D01*
X111275714Y-57561904D01*
X111228095Y-57657142D01*
X111180476Y-57704761D01*
X111085238Y-57752380D01*
X110799523Y-57752380D01*
X110704285Y-57704761D01*
X110656666Y-57657142D01*
X162583904Y-57348380D02*
X162583904Y-56348380D01*
X162822000Y-56348380D01*
X162964857Y-56396000D01*
X163060095Y-56491238D01*
X163107714Y-56586476D01*
X163155333Y-56776952D01*
X163155333Y-56919809D01*
X163107714Y-57110285D01*
X163060095Y-57205523D01*
X162964857Y-57300761D01*
X162822000Y-57348380D01*
X162583904Y-57348380D01*
X164012476Y-56681714D02*
X164012476Y-57348380D01*
X163774380Y-56300761D02*
X163536285Y-57015047D01*
X164155333Y-57015047D01*
X114831904Y-50132380D02*
X114831904Y-49132380D01*
X115070000Y-49132380D01*
X115212857Y-49180000D01*
X115308095Y-49275238D01*
X115355714Y-49370476D01*
X115403333Y-49560952D01*
X115403333Y-49703809D01*
X115355714Y-49894285D01*
X115308095Y-49989523D01*
X115212857Y-50084761D01*
X115070000Y-50132380D01*
X114831904Y-50132380D01*
X116308095Y-49132380D02*
X115831904Y-49132380D01*
X115784285Y-49608571D01*
X115831904Y-49560952D01*
X115927142Y-49513333D01*
X116165238Y-49513333D01*
X116260476Y-49560952D01*
X116308095Y-49608571D01*
X116355714Y-49703809D01*
X116355714Y-49941904D01*
X116308095Y-50037142D01*
X116260476Y-50084761D01*
X116165238Y-50132380D01*
X115927142Y-50132380D01*
X115831904Y-50084761D01*
X115784285Y-50037142D01*
X158011904Y-50236380D02*
X158011904Y-49236380D01*
X158250000Y-49236380D01*
X158392857Y-49284000D01*
X158488095Y-49379238D01*
X158535714Y-49474476D01*
X158583333Y-49664952D01*
X158583333Y-49807809D01*
X158535714Y-49998285D01*
X158488095Y-50093523D01*
X158392857Y-50188761D01*
X158250000Y-50236380D01*
X158011904Y-50236380D01*
X159440476Y-49236380D02*
X159250000Y-49236380D01*
X159154761Y-49284000D01*
X159107142Y-49331619D01*
X159011904Y-49474476D01*
X158964285Y-49664952D01*
X158964285Y-50045904D01*
X159011904Y-50141142D01*
X159059523Y-50188761D01*
X159154761Y-50236380D01*
X159345238Y-50236380D01*
X159440476Y-50188761D01*
X159488095Y-50141142D01*
X159535714Y-50045904D01*
X159535714Y-49807809D01*
X159488095Y-49712571D01*
X159440476Y-49664952D01*
X159345238Y-49617333D01*
X159154761Y-49617333D01*
X159059523Y-49664952D01*
X159011904Y-49712571D01*
X158964285Y-49807809D01*
X137588666Y-80352380D02*
X137588666Y-81066666D01*
X137541047Y-81209523D01*
X137445809Y-81304761D01*
X137302952Y-81352380D01*
X137207714Y-81352380D01*
X138588666Y-81352380D02*
X138017238Y-81352380D01*
X138302952Y-81352380D02*
X138302952Y-80352380D01*
X138207714Y-80495238D01*
X138112476Y-80590476D01*
X138017238Y-80638095D01*
M02*
