G04 #@! TF.GenerationSoftware,KiCad,Pcbnew,(5.1.5-0)*
G04 #@! TF.CreationDate,2020-12-05T10:39:51+01:00*
G04 #@! TF.ProjectId,xmas_fablab2020,786d6173-5f66-4616-926c-616232303230,rev?*
G04 #@! TF.SameCoordinates,Original*
G04 #@! TF.FileFunction,Copper,L1,Top*
G04 #@! TF.FilePolarity,Positive*
%FSLAX46Y46*%
G04 Gerber Fmt 4.6, Leading zero omitted, Abs format (unit mm)*
G04 Created by KiCad (PCBNEW (5.1.5-0)) date 2020-12-05 10:39:51*
%MOMM*%
%LPD*%
G04 APERTURE LIST*
%ADD10C,2.400000*%
%ADD11O,2.400000X2.400000*%
%ADD12R,1.600000X1.600000*%
%ADD13C,1.600000*%
%ADD14C,1.800000*%
%ADD15R,1.800000X1.800000*%
%ADD16O,1.600000X1.600000*%
%ADD17C,3.000000*%
%ADD18C,9.000000*%
%ADD19C,0.400000*%
%ADD20C,1.000000*%
%ADD21C,0.254000*%
G04 APERTURE END LIST*
D10*
X152400000Y-72390000D03*
D11*
X152400000Y-52070000D03*
D10*
X147320000Y-41910000D03*
D11*
X127000000Y-41910000D03*
D12*
X135890000Y-56769000D03*
D13*
X138390000Y-56769000D03*
D14*
X107950000Y-62230000D03*
D15*
X110490000Y-62230000D03*
X165100000Y-60960000D03*
D14*
X167640000Y-60960000D03*
D11*
X121920000Y-52070000D03*
D10*
X121920000Y-72390000D03*
D11*
X147066000Y-48260000D03*
D10*
X126746000Y-48260000D03*
D12*
X141224000Y-64770000D03*
D16*
X133604000Y-72390000D03*
X138684000Y-64770000D03*
X136144000Y-72390000D03*
X136144000Y-64770000D03*
X138684000Y-72390000D03*
X133604000Y-64770000D03*
X141224000Y-72390000D03*
D14*
X109220000Y-53340000D03*
D15*
X111760000Y-53340000D03*
D14*
X164465000Y-52705000D03*
D15*
X161925000Y-52705000D03*
X116840000Y-45720000D03*
D14*
X114300000Y-45720000D03*
D15*
X157480000Y-45720000D03*
D14*
X160020000Y-45720000D03*
D17*
X131322000Y-88900000D03*
X144522000Y-88900000D03*
D18*
X137922000Y-88900000D03*
D19*
X136144000Y-72390000D02*
X136144000Y-70358000D01*
X138684000Y-67818000D02*
X138684000Y-64770000D01*
X136144000Y-70358000D02*
X138684000Y-67818000D01*
X138684000Y-64770000D02*
X138684000Y-61468000D01*
X135890000Y-58674000D02*
X135890000Y-56769000D01*
X138684000Y-61468000D02*
X135890000Y-58674000D01*
X135890000Y-55569000D02*
X135890000Y-56769000D01*
X132391000Y-52070000D02*
X135890000Y-55569000D01*
X121920000Y-52070000D02*
X132391000Y-52070000D01*
D20*
X142421999Y-84400001D02*
X149279999Y-84400001D01*
X137922000Y-88900000D02*
X142421999Y-84400001D01*
X165100000Y-68580000D02*
X165100000Y-60960000D01*
X149279999Y-84400001D02*
X165100000Y-68580000D01*
X161925000Y-52705000D02*
X161925000Y-55245000D01*
X165100000Y-58420000D02*
X165100000Y-60960000D01*
X161925000Y-55245000D02*
X165100000Y-58420000D01*
X157480000Y-48260000D02*
X161925000Y-52705000D01*
X157480000Y-45720000D02*
X157480000Y-48260000D01*
X138390000Y-56769000D02*
X143383000Y-56769000D01*
X154432000Y-45720000D02*
X157480000Y-45720000D01*
X143383000Y-56769000D02*
X154432000Y-45720000D01*
X141224000Y-60734370D02*
X141224000Y-64770000D01*
X138390000Y-57900370D02*
X141224000Y-60734370D01*
X138390000Y-56769000D02*
X138390000Y-57900370D01*
D19*
X116837208Y-41910000D02*
X125302944Y-41910000D01*
X125302944Y-41910000D02*
X127000000Y-41910000D01*
X114300000Y-44447208D02*
X116837208Y-41910000D01*
X114300000Y-45720000D02*
X114300000Y-44447208D01*
X110119999Y-49900001D02*
X113400001Y-46619999D01*
X110119999Y-52440001D02*
X110119999Y-49900001D01*
X113400001Y-46619999D02*
X114300000Y-45720000D01*
X109220000Y-53340000D02*
X110119999Y-52440001D01*
X107950000Y-54610000D02*
X109220000Y-53340000D01*
X107950000Y-62230000D02*
X107950000Y-54610000D01*
X115794000Y-68834000D02*
X134112000Y-68834000D01*
X136144000Y-66802000D02*
X136144000Y-64770000D01*
X110490000Y-63530000D02*
X115794000Y-68834000D01*
X134112000Y-68834000D02*
X136144000Y-66802000D01*
X110490000Y-62230000D02*
X110490000Y-63530000D01*
X110490000Y-54610000D02*
X111760000Y-53340000D01*
X110490000Y-62230000D02*
X110490000Y-54610000D01*
X111760000Y-50800000D02*
X116840000Y-45720000D01*
X111760000Y-53340000D02*
X111760000Y-50800000D01*
X124206000Y-45720000D02*
X126746000Y-48260000D01*
X116840000Y-45720000D02*
X124206000Y-45720000D01*
X148763056Y-48260000D02*
X155113056Y-41910000D01*
X147066000Y-48260000D02*
X148763056Y-48260000D01*
X157482792Y-41910000D02*
X160020000Y-44447208D01*
X160020000Y-44447208D02*
X160020000Y-45720000D01*
X155113056Y-41910000D02*
X157482792Y-41910000D01*
X160020000Y-45720000D02*
X160020000Y-47752000D01*
X160020000Y-47752000D02*
X162814000Y-50546000D01*
X164465000Y-51432208D02*
X164465000Y-52705000D01*
X163578792Y-50546000D02*
X164465000Y-51432208D01*
X162814000Y-50546000D02*
X163578792Y-50546000D01*
X164465000Y-53977792D02*
X167640000Y-57152792D01*
X167640000Y-59687208D02*
X167640000Y-60960000D01*
X167640000Y-57152792D02*
X167640000Y-59687208D01*
X164465000Y-52705000D02*
X164465000Y-53977792D01*
X152400000Y-53767056D02*
X152400000Y-52070000D01*
X138684000Y-71258630D02*
X152400000Y-57542630D01*
X152400000Y-57542630D02*
X152400000Y-53767056D01*
X138684000Y-72390000D02*
X138684000Y-71258630D01*
X138684000Y-75438000D02*
X138684000Y-72390000D01*
X132588000Y-76708000D02*
X137414000Y-76708000D01*
X137414000Y-76708000D02*
X138684000Y-75438000D01*
X128270000Y-72390000D02*
X132588000Y-76708000D01*
X121920000Y-72390000D02*
X128270000Y-72390000D01*
D21*
G36*
X148547793Y-32506515D02*
G01*
X156768377Y-36932983D01*
X163727018Y-43891624D01*
X168154608Y-52114291D01*
X170052101Y-60969258D01*
X169419365Y-70460296D01*
X166889895Y-78048706D01*
X163097732Y-83736950D01*
X154871541Y-91330357D01*
X143480119Y-95760354D01*
X137162702Y-96392096D01*
X128304586Y-95126651D01*
X119445873Y-91330060D01*
X118272865Y-90391653D01*
X130009952Y-90391653D01*
X130165962Y-90707214D01*
X130540745Y-90898020D01*
X130945551Y-91012044D01*
X131364824Y-91044902D01*
X131782451Y-90995334D01*
X132182383Y-90865243D01*
X132478038Y-90707214D01*
X132634048Y-90391653D01*
X131322000Y-89079605D01*
X130009952Y-90391653D01*
X118272865Y-90391653D01*
X116461828Y-88942824D01*
X129177098Y-88942824D01*
X129226666Y-89360451D01*
X129356757Y-89760383D01*
X129514786Y-90056038D01*
X129830347Y-90212048D01*
X131142395Y-88900000D01*
X129830347Y-87587952D01*
X129514786Y-87743962D01*
X129323980Y-88118745D01*
X129209956Y-88523551D01*
X129177098Y-88942824D01*
X116461828Y-88942824D01*
X114543732Y-87408347D01*
X130009952Y-87408347D01*
X131322000Y-88720395D01*
X132634048Y-87408347D01*
X132478038Y-87092786D01*
X132103255Y-86901980D01*
X131698449Y-86787956D01*
X131279176Y-86755098D01*
X130861549Y-86804666D01*
X130461617Y-86934757D01*
X130165962Y-87092786D01*
X130009952Y-87408347D01*
X114543732Y-87408347D01*
X113122668Y-86271496D01*
X108062033Y-79313122D01*
X105533990Y-72993015D01*
X104267791Y-62863425D01*
X104346251Y-62078816D01*
X106415000Y-62078816D01*
X106415000Y-62381184D01*
X106473989Y-62677743D01*
X106589701Y-62957095D01*
X106757688Y-63208505D01*
X106971495Y-63422312D01*
X107222905Y-63590299D01*
X107502257Y-63706011D01*
X107798816Y-63765000D01*
X108101184Y-63765000D01*
X108397743Y-63706011D01*
X108677095Y-63590299D01*
X108928505Y-63422312D01*
X108994944Y-63355873D01*
X109000498Y-63374180D01*
X109059463Y-63484494D01*
X109138815Y-63581185D01*
X109235506Y-63660537D01*
X109345820Y-63719502D01*
X109465518Y-63755812D01*
X109590000Y-63768072D01*
X109689646Y-63768072D01*
X109714828Y-63851086D01*
X109792364Y-63996145D01*
X109792365Y-63996146D01*
X109896710Y-64123291D01*
X109928574Y-64149441D01*
X115174563Y-69395432D01*
X115200709Y-69427291D01*
X115327854Y-69531636D01*
X115472913Y-69609172D01*
X115630311Y-69656918D01*
X115752981Y-69669000D01*
X115752982Y-69669000D01*
X115794000Y-69673040D01*
X115835018Y-69669000D01*
X134070982Y-69669000D01*
X134112000Y-69673040D01*
X134153018Y-69669000D01*
X134153019Y-69669000D01*
X134275689Y-69656918D01*
X134433087Y-69609172D01*
X134578146Y-69531636D01*
X134705291Y-69427291D01*
X134731446Y-69395421D01*
X136705433Y-67421436D01*
X136737291Y-67395291D01*
X136841636Y-67268146D01*
X136919172Y-67123087D01*
X136966918Y-66965689D01*
X136979000Y-66843019D01*
X136979000Y-66843018D01*
X136983040Y-66802000D01*
X136979000Y-66760982D01*
X136979000Y-65937930D01*
X137058759Y-65884637D01*
X137258637Y-65684759D01*
X137414000Y-65452241D01*
X137569363Y-65684759D01*
X137769241Y-65884637D01*
X137849001Y-65937931D01*
X137849000Y-67472132D01*
X135582574Y-69738559D01*
X135550710Y-69764709D01*
X135524562Y-69796571D01*
X135446364Y-69891855D01*
X135368828Y-70036914D01*
X135321082Y-70194312D01*
X135304960Y-70358000D01*
X135309001Y-70399028D01*
X135309001Y-71222069D01*
X135229241Y-71275363D01*
X135029363Y-71475241D01*
X134874000Y-71707759D01*
X134718637Y-71475241D01*
X134518759Y-71275363D01*
X134283727Y-71118320D01*
X134022574Y-71010147D01*
X133745335Y-70955000D01*
X133462665Y-70955000D01*
X133185426Y-71010147D01*
X132924273Y-71118320D01*
X132689241Y-71275363D01*
X132489363Y-71475241D01*
X132332320Y-71710273D01*
X132224147Y-71971426D01*
X132169000Y-72248665D01*
X132169000Y-72531335D01*
X132224147Y-72808574D01*
X132332320Y-73069727D01*
X132489363Y-73304759D01*
X132689241Y-73504637D01*
X132924273Y-73661680D01*
X133185426Y-73769853D01*
X133462665Y-73825000D01*
X133745335Y-73825000D01*
X134022574Y-73769853D01*
X134283727Y-73661680D01*
X134518759Y-73504637D01*
X134718637Y-73304759D01*
X134874000Y-73072241D01*
X135029363Y-73304759D01*
X135229241Y-73504637D01*
X135464273Y-73661680D01*
X135725426Y-73769853D01*
X136002665Y-73825000D01*
X136285335Y-73825000D01*
X136562574Y-73769853D01*
X136823727Y-73661680D01*
X137058759Y-73504637D01*
X137258637Y-73304759D01*
X137414000Y-73072241D01*
X137569363Y-73304759D01*
X137769241Y-73504637D01*
X137849001Y-73557931D01*
X137849000Y-75092132D01*
X137068133Y-75873000D01*
X132933868Y-75873000D01*
X128889446Y-71828579D01*
X128863291Y-71796709D01*
X128736146Y-71692364D01*
X128591087Y-71614828D01*
X128433689Y-71567082D01*
X128311019Y-71555000D01*
X128311018Y-71555000D01*
X128270000Y-71550960D01*
X128228982Y-71555000D01*
X123560322Y-71555000D01*
X123546156Y-71520801D01*
X123345338Y-71220256D01*
X123089744Y-70964662D01*
X122789199Y-70763844D01*
X122455250Y-70625518D01*
X122100732Y-70555000D01*
X121739268Y-70555000D01*
X121384750Y-70625518D01*
X121050801Y-70763844D01*
X120750256Y-70964662D01*
X120494662Y-71220256D01*
X120293844Y-71520801D01*
X120155518Y-71854750D01*
X120085000Y-72209268D01*
X120085000Y-72570732D01*
X120155518Y-72925250D01*
X120293844Y-73259199D01*
X120494662Y-73559744D01*
X120750256Y-73815338D01*
X121050801Y-74016156D01*
X121384750Y-74154482D01*
X121739268Y-74225000D01*
X122100732Y-74225000D01*
X122455250Y-74154482D01*
X122789199Y-74016156D01*
X123089744Y-73815338D01*
X123345338Y-73559744D01*
X123546156Y-73259199D01*
X123560322Y-73225000D01*
X127924133Y-73225000D01*
X131968559Y-77269427D01*
X131994709Y-77301291D01*
X132121854Y-77405636D01*
X132266913Y-77483172D01*
X132424311Y-77530918D01*
X132587999Y-77547040D01*
X132629018Y-77543000D01*
X137372982Y-77543000D01*
X137414000Y-77547040D01*
X137455018Y-77543000D01*
X137455019Y-77543000D01*
X137577689Y-77530918D01*
X137735087Y-77483172D01*
X137880146Y-77405636D01*
X138007291Y-77301291D01*
X138033446Y-77269421D01*
X139245428Y-76057440D01*
X139277291Y-76031291D01*
X139381636Y-75904146D01*
X139459172Y-75759087D01*
X139506918Y-75601689D01*
X139519000Y-75479019D01*
X139519000Y-75479017D01*
X139523040Y-75438001D01*
X139519000Y-75396985D01*
X139519000Y-73557930D01*
X139598759Y-73504637D01*
X139798637Y-73304759D01*
X139955680Y-73069727D01*
X139960067Y-73059135D01*
X140071615Y-73245131D01*
X140260586Y-73453519D01*
X140486580Y-73621037D01*
X140740913Y-73741246D01*
X140874961Y-73781904D01*
X141097000Y-73659915D01*
X141097000Y-72517000D01*
X141351000Y-72517000D01*
X141351000Y-73659915D01*
X141573039Y-73781904D01*
X141707087Y-73741246D01*
X141862100Y-73667980D01*
X151301626Y-73667980D01*
X151421514Y-73952836D01*
X151745210Y-74113699D01*
X152094069Y-74208322D01*
X152454684Y-74233067D01*
X152813198Y-74186985D01*
X153155833Y-74071846D01*
X153378486Y-73952836D01*
X153498374Y-73667980D01*
X152400000Y-72569605D01*
X151301626Y-73667980D01*
X141862100Y-73667980D01*
X141961420Y-73621037D01*
X142187414Y-73453519D01*
X142376385Y-73245131D01*
X142521070Y-73003881D01*
X142615909Y-72739040D01*
X142494624Y-72517000D01*
X141351000Y-72517000D01*
X141097000Y-72517000D01*
X141077000Y-72517000D01*
X141077000Y-72444684D01*
X150556933Y-72444684D01*
X150603015Y-72803198D01*
X150718154Y-73145833D01*
X150837164Y-73368486D01*
X151122020Y-73488374D01*
X152220395Y-72390000D01*
X152579605Y-72390000D01*
X153677980Y-73488374D01*
X153962836Y-73368486D01*
X154123699Y-73044790D01*
X154218322Y-72695931D01*
X154243067Y-72335316D01*
X154196985Y-71976802D01*
X154081846Y-71634167D01*
X153962836Y-71411514D01*
X153677980Y-71291626D01*
X152579605Y-72390000D01*
X152220395Y-72390000D01*
X151122020Y-71291626D01*
X150837164Y-71411514D01*
X150676301Y-71735210D01*
X150581678Y-72084069D01*
X150556933Y-72444684D01*
X141077000Y-72444684D01*
X141077000Y-72263000D01*
X141097000Y-72263000D01*
X141097000Y-71120085D01*
X141351000Y-71120085D01*
X141351000Y-72263000D01*
X142494624Y-72263000D01*
X142615909Y-72040960D01*
X142521070Y-71776119D01*
X142376385Y-71534869D01*
X142187414Y-71326481D01*
X141961420Y-71158963D01*
X141862101Y-71112020D01*
X151301626Y-71112020D01*
X152400000Y-72210395D01*
X153498374Y-71112020D01*
X153378486Y-70827164D01*
X153054790Y-70666301D01*
X152705931Y-70571678D01*
X152345316Y-70546933D01*
X151986802Y-70593015D01*
X151644167Y-70708154D01*
X151421514Y-70827164D01*
X151301626Y-71112020D01*
X141862101Y-71112020D01*
X141707087Y-71038754D01*
X141573039Y-70998096D01*
X141351000Y-71120085D01*
X141097000Y-71120085D01*
X140874961Y-70998096D01*
X140740913Y-71038754D01*
X140486580Y-71158963D01*
X140260586Y-71326481D01*
X140071615Y-71534869D01*
X139960067Y-71720865D01*
X139955680Y-71710273D01*
X139798637Y-71475241D01*
X139723447Y-71400051D01*
X152961428Y-58162070D01*
X152993291Y-58135921D01*
X153097636Y-58008776D01*
X153175172Y-57863717D01*
X153222918Y-57706319D01*
X153235000Y-57583649D01*
X153235000Y-57583647D01*
X153239040Y-57542631D01*
X153235000Y-57501615D01*
X153235000Y-53710322D01*
X153269199Y-53696156D01*
X153569744Y-53495338D01*
X153825338Y-53239744D01*
X154026156Y-52939199D01*
X154164482Y-52605250D01*
X154235000Y-52250732D01*
X154235000Y-51889268D01*
X154164482Y-51534750D01*
X154026156Y-51200801D01*
X153825338Y-50900256D01*
X153569744Y-50644662D01*
X153269199Y-50443844D01*
X152935250Y-50305518D01*
X152580732Y-50235000D01*
X152219268Y-50235000D01*
X151864750Y-50305518D01*
X151530801Y-50443844D01*
X151230256Y-50644662D01*
X150974662Y-50900256D01*
X150773844Y-51200801D01*
X150635518Y-51534750D01*
X150565000Y-51889268D01*
X150565000Y-52250732D01*
X150635518Y-52605250D01*
X150773844Y-52939199D01*
X150974662Y-53239744D01*
X151230256Y-53495338D01*
X151530801Y-53696156D01*
X151565000Y-53710322D01*
X151565000Y-53808074D01*
X151565001Y-53808084D01*
X151565000Y-57196762D01*
X138122574Y-70639189D01*
X138090710Y-70665339D01*
X138064562Y-70697201D01*
X137986364Y-70792485D01*
X137908828Y-70937544D01*
X137861082Y-71094942D01*
X137848530Y-71222384D01*
X137769241Y-71275363D01*
X137569363Y-71475241D01*
X137414000Y-71707759D01*
X137258637Y-71475241D01*
X137058759Y-71275363D01*
X136979000Y-71222070D01*
X136979000Y-70703867D01*
X139245428Y-68437440D01*
X139277291Y-68411291D01*
X139381636Y-68284146D01*
X139459172Y-68139087D01*
X139506918Y-67981689D01*
X139519000Y-67859019D01*
X139519000Y-67859009D01*
X139523039Y-67818001D01*
X139519000Y-67776993D01*
X139519000Y-65937930D01*
X139598759Y-65884637D01*
X139797357Y-65686039D01*
X139798188Y-65694482D01*
X139834498Y-65814180D01*
X139893463Y-65924494D01*
X139972815Y-66021185D01*
X140069506Y-66100537D01*
X140179820Y-66159502D01*
X140299518Y-66195812D01*
X140424000Y-66208072D01*
X142024000Y-66208072D01*
X142148482Y-66195812D01*
X142268180Y-66159502D01*
X142378494Y-66100537D01*
X142475185Y-66021185D01*
X142554537Y-65924494D01*
X142613502Y-65814180D01*
X142649812Y-65694482D01*
X142662072Y-65570000D01*
X142662072Y-63970000D01*
X142649812Y-63845518D01*
X142613502Y-63725820D01*
X142554537Y-63615506D01*
X142475185Y-63518815D01*
X142378494Y-63439463D01*
X142359000Y-63429043D01*
X142359000Y-60790113D01*
X142364490Y-60734369D01*
X142359000Y-60678625D01*
X142359000Y-60678618D01*
X142342577Y-60511871D01*
X142277676Y-60297923D01*
X142172284Y-60100747D01*
X142030449Y-59927921D01*
X141987141Y-59892379D01*
X139998761Y-57904000D01*
X143327249Y-57904000D01*
X143383000Y-57909491D01*
X143438751Y-57904000D01*
X143438752Y-57904000D01*
X143605499Y-57887577D01*
X143819447Y-57822676D01*
X144016623Y-57717284D01*
X144189449Y-57575449D01*
X144224996Y-57532135D01*
X154902133Y-46855000D01*
X155987713Y-46855000D01*
X155990498Y-46864180D01*
X156049463Y-46974494D01*
X156128815Y-47071185D01*
X156225506Y-47150537D01*
X156335820Y-47209502D01*
X156345001Y-47212287D01*
X156345001Y-48204239D01*
X156339509Y-48260000D01*
X156361423Y-48482498D01*
X156426324Y-48696446D01*
X156442199Y-48726146D01*
X156531717Y-48893623D01*
X156673552Y-49066449D01*
X156716860Y-49101991D01*
X160386928Y-52772060D01*
X160386928Y-53605000D01*
X160399188Y-53729482D01*
X160435498Y-53849180D01*
X160494463Y-53959494D01*
X160573815Y-54056185D01*
X160670506Y-54135537D01*
X160780820Y-54194502D01*
X160790001Y-54197287D01*
X160790001Y-55189239D01*
X160784509Y-55245000D01*
X160806423Y-55467498D01*
X160871324Y-55681446D01*
X160894508Y-55724820D01*
X160976717Y-55878623D01*
X161118552Y-56051449D01*
X161161860Y-56086991D01*
X163965000Y-58890132D01*
X163965000Y-59467713D01*
X163955820Y-59470498D01*
X163845506Y-59529463D01*
X163748815Y-59608815D01*
X163669463Y-59705506D01*
X163610498Y-59815820D01*
X163574188Y-59935518D01*
X163561928Y-60060000D01*
X163561928Y-61860000D01*
X163574188Y-61984482D01*
X163610498Y-62104180D01*
X163669463Y-62214494D01*
X163748815Y-62311185D01*
X163845506Y-62390537D01*
X163955820Y-62449502D01*
X163965001Y-62452287D01*
X163965000Y-68109868D01*
X148809868Y-83265001D01*
X142477751Y-83265001D01*
X142421999Y-83259510D01*
X142199500Y-83281424D01*
X141985552Y-83346325D01*
X141788376Y-83451717D01*
X141658855Y-83558012D01*
X141658853Y-83558014D01*
X141615550Y-83593552D01*
X141580012Y-83636855D01*
X140661922Y-84554945D01*
X140354335Y-84349422D01*
X139419824Y-83962335D01*
X138427753Y-83765000D01*
X137416247Y-83765000D01*
X136424176Y-83962335D01*
X135489665Y-84349422D01*
X134648628Y-84911385D01*
X133933385Y-85626628D01*
X133371422Y-86467665D01*
X132984335Y-87402176D01*
X132935408Y-87648147D01*
X132813653Y-87587952D01*
X131501605Y-88900000D01*
X132813653Y-90212048D01*
X132935408Y-90151853D01*
X132984335Y-90397824D01*
X133371422Y-91332335D01*
X133933385Y-92173372D01*
X134648628Y-92888615D01*
X135489665Y-93450578D01*
X136424176Y-93837665D01*
X137416247Y-94035000D01*
X138427753Y-94035000D01*
X139419824Y-93837665D01*
X140354335Y-93450578D01*
X141195372Y-92888615D01*
X141910615Y-92173372D01*
X142472578Y-91332335D01*
X142859665Y-90397824D01*
X142860892Y-90391653D01*
X143209952Y-90391653D01*
X143365962Y-90707214D01*
X143740745Y-90898020D01*
X144145551Y-91012044D01*
X144564824Y-91044902D01*
X144982451Y-90995334D01*
X145382383Y-90865243D01*
X145678038Y-90707214D01*
X145834048Y-90391653D01*
X144522000Y-89079605D01*
X143209952Y-90391653D01*
X142860892Y-90391653D01*
X142908592Y-90151853D01*
X143030347Y-90212048D01*
X144342395Y-88900000D01*
X144701605Y-88900000D01*
X146013653Y-90212048D01*
X146329214Y-90056038D01*
X146520020Y-89681255D01*
X146634044Y-89276449D01*
X146666902Y-88857176D01*
X146617334Y-88439549D01*
X146487243Y-88039617D01*
X146329214Y-87743962D01*
X146013653Y-87587952D01*
X144701605Y-88900000D01*
X144342395Y-88900000D01*
X143030347Y-87587952D01*
X142908592Y-87648147D01*
X142860893Y-87408347D01*
X143209952Y-87408347D01*
X144522000Y-88720395D01*
X145834048Y-87408347D01*
X145678038Y-87092786D01*
X145303255Y-86901980D01*
X144898449Y-86787956D01*
X144479176Y-86755098D01*
X144061549Y-86804666D01*
X143661617Y-86934757D01*
X143365962Y-87092786D01*
X143209952Y-87408347D01*
X142860893Y-87408347D01*
X142859665Y-87402176D01*
X142472578Y-86467665D01*
X142267055Y-86160078D01*
X142892132Y-85535001D01*
X149224248Y-85535001D01*
X149279999Y-85540492D01*
X149335750Y-85535001D01*
X149335751Y-85535001D01*
X149502498Y-85518578D01*
X149716446Y-85453677D01*
X149913622Y-85348285D01*
X150086448Y-85206450D01*
X150121995Y-85163136D01*
X165863141Y-69421991D01*
X165906449Y-69386449D01*
X166048284Y-69213623D01*
X166153676Y-69016447D01*
X166218577Y-68802499D01*
X166235000Y-68635752D01*
X166235000Y-68635751D01*
X166240491Y-68580000D01*
X166235000Y-68524249D01*
X166235000Y-62452287D01*
X166244180Y-62449502D01*
X166354494Y-62390537D01*
X166451185Y-62311185D01*
X166530537Y-62214494D01*
X166589502Y-62104180D01*
X166595056Y-62085873D01*
X166661495Y-62152312D01*
X166912905Y-62320299D01*
X167192257Y-62436011D01*
X167488816Y-62495000D01*
X167791184Y-62495000D01*
X168087743Y-62436011D01*
X168367095Y-62320299D01*
X168618505Y-62152312D01*
X168832312Y-61938505D01*
X169000299Y-61687095D01*
X169116011Y-61407743D01*
X169175000Y-61111184D01*
X169175000Y-60808816D01*
X169116011Y-60512257D01*
X169000299Y-60232905D01*
X168832312Y-59981495D01*
X168618505Y-59767688D01*
X168475000Y-59671801D01*
X168475000Y-57193810D01*
X168479040Y-57152791D01*
X168462918Y-56989103D01*
X168415172Y-56831705D01*
X168337636Y-56686646D01*
X168233291Y-56559501D01*
X168201428Y-56533352D01*
X165504446Y-53836371D01*
X165657312Y-53683505D01*
X165825299Y-53432095D01*
X165941011Y-53152743D01*
X166000000Y-52856184D01*
X166000000Y-52553816D01*
X165941011Y-52257257D01*
X165825299Y-51977905D01*
X165657312Y-51726495D01*
X165443505Y-51512688D01*
X165302699Y-51418604D01*
X165300000Y-51391199D01*
X165300000Y-51391189D01*
X165287918Y-51268519D01*
X165240172Y-51111121D01*
X165162636Y-50966062D01*
X165058291Y-50838917D01*
X165026427Y-50812768D01*
X164198238Y-49984579D01*
X164172083Y-49952709D01*
X164044938Y-49848364D01*
X163899879Y-49770828D01*
X163742481Y-49723082D01*
X163619811Y-49711000D01*
X163619810Y-49711000D01*
X163578792Y-49706960D01*
X163537774Y-49711000D01*
X163159869Y-49711000D01*
X160855000Y-47406133D01*
X160855000Y-47008199D01*
X160998505Y-46912312D01*
X161212312Y-46698505D01*
X161380299Y-46447095D01*
X161496011Y-46167743D01*
X161555000Y-45871184D01*
X161555000Y-45568816D01*
X161496011Y-45272257D01*
X161380299Y-44992905D01*
X161212312Y-44741495D01*
X160998505Y-44527688D01*
X160857700Y-44433605D01*
X160842918Y-44283519D01*
X160795172Y-44126121D01*
X160717636Y-43981062D01*
X160639439Y-43885778D01*
X160639437Y-43885776D01*
X160613291Y-43853917D01*
X160581433Y-43827772D01*
X158102238Y-41348579D01*
X158076083Y-41316709D01*
X157948938Y-41212364D01*
X157803879Y-41134828D01*
X157646481Y-41087082D01*
X157523811Y-41075000D01*
X157523810Y-41075000D01*
X157482792Y-41070960D01*
X157441774Y-41075000D01*
X155154074Y-41075000D01*
X155113055Y-41070960D01*
X155072037Y-41075000D01*
X154949367Y-41087082D01*
X154791969Y-41134828D01*
X154646910Y-41212364D01*
X154519765Y-41316709D01*
X154493615Y-41348573D01*
X148595718Y-47246471D01*
X148491338Y-47090256D01*
X148235744Y-46834662D01*
X147935199Y-46633844D01*
X147601250Y-46495518D01*
X147246732Y-46425000D01*
X146885268Y-46425000D01*
X146530750Y-46495518D01*
X146196801Y-46633844D01*
X145896256Y-46834662D01*
X145640662Y-47090256D01*
X145439844Y-47390801D01*
X145301518Y-47724750D01*
X145231000Y-48079268D01*
X145231000Y-48440732D01*
X145301518Y-48795250D01*
X145439844Y-49129199D01*
X145640662Y-49429744D01*
X145896256Y-49685338D01*
X146196801Y-49886156D01*
X146530750Y-50024482D01*
X146885268Y-50095000D01*
X147246732Y-50095000D01*
X147601250Y-50024482D01*
X147935199Y-49886156D01*
X148235744Y-49685338D01*
X148491338Y-49429744D01*
X148692156Y-49129199D01*
X148706322Y-49095000D01*
X148722038Y-49095000D01*
X148763056Y-49099040D01*
X148804074Y-49095000D01*
X148804075Y-49095000D01*
X148926745Y-49082918D01*
X149084143Y-49035172D01*
X149229202Y-48957636D01*
X149356347Y-48853291D01*
X149382502Y-48821421D01*
X155458924Y-42745000D01*
X157136925Y-42745000D01*
X158621656Y-44229732D01*
X158504482Y-44194188D01*
X158380000Y-44181928D01*
X156580000Y-44181928D01*
X156455518Y-44194188D01*
X156335820Y-44230498D01*
X156225506Y-44289463D01*
X156128815Y-44368815D01*
X156049463Y-44465506D01*
X155990498Y-44575820D01*
X155987713Y-44585000D01*
X154487752Y-44585000D01*
X154432000Y-44579509D01*
X154209501Y-44601423D01*
X153995553Y-44666324D01*
X153798377Y-44771716D01*
X153668856Y-44878011D01*
X153668854Y-44878013D01*
X153625551Y-44913551D01*
X153590013Y-44956854D01*
X142912869Y-55634000D01*
X139274284Y-55634000D01*
X139069727Y-55497320D01*
X138808574Y-55389147D01*
X138531335Y-55334000D01*
X138248665Y-55334000D01*
X137971426Y-55389147D01*
X137710273Y-55497320D01*
X137475241Y-55654363D01*
X137308661Y-55820943D01*
X137279502Y-55724820D01*
X137220537Y-55614506D01*
X137141185Y-55517815D01*
X137044494Y-55438463D01*
X136934180Y-55379498D01*
X136814482Y-55343188D01*
X136690365Y-55330964D01*
X136665172Y-55247913D01*
X136587636Y-55102854D01*
X136483291Y-54975709D01*
X136451428Y-54949560D01*
X133010446Y-51508579D01*
X132984291Y-51476709D01*
X132857146Y-51372364D01*
X132712087Y-51294828D01*
X132554689Y-51247082D01*
X132432019Y-51235000D01*
X132432018Y-51235000D01*
X132391000Y-51230960D01*
X132349982Y-51235000D01*
X123560322Y-51235000D01*
X123546156Y-51200801D01*
X123345338Y-50900256D01*
X123089744Y-50644662D01*
X122789199Y-50443844D01*
X122455250Y-50305518D01*
X122100732Y-50235000D01*
X121739268Y-50235000D01*
X121384750Y-50305518D01*
X121050801Y-50443844D01*
X120750256Y-50644662D01*
X120494662Y-50900256D01*
X120293844Y-51200801D01*
X120155518Y-51534750D01*
X120085000Y-51889268D01*
X120085000Y-52250732D01*
X120155518Y-52605250D01*
X120293844Y-52939199D01*
X120494662Y-53239744D01*
X120750256Y-53495338D01*
X121050801Y-53696156D01*
X121384750Y-53834482D01*
X121739268Y-53905000D01*
X122100732Y-53905000D01*
X122455250Y-53834482D01*
X122789199Y-53696156D01*
X123089744Y-53495338D01*
X123345338Y-53239744D01*
X123546156Y-52939199D01*
X123560322Y-52905000D01*
X132045133Y-52905000D01*
X134649323Y-55509191D01*
X134638815Y-55517815D01*
X134559463Y-55614506D01*
X134500498Y-55724820D01*
X134464188Y-55844518D01*
X134451928Y-55969000D01*
X134451928Y-57569000D01*
X134464188Y-57693482D01*
X134500498Y-57813180D01*
X134559463Y-57923494D01*
X134638815Y-58020185D01*
X134735506Y-58099537D01*
X134845820Y-58158502D01*
X134965518Y-58194812D01*
X135055000Y-58203625D01*
X135055000Y-58632981D01*
X135050960Y-58674000D01*
X135055000Y-58715018D01*
X135067082Y-58837688D01*
X135114828Y-58995086D01*
X135192364Y-59140145D01*
X135296709Y-59267291D01*
X135328579Y-59293446D01*
X137849001Y-61813870D01*
X137849000Y-63602070D01*
X137769241Y-63655363D01*
X137569363Y-63855241D01*
X137414000Y-64087759D01*
X137258637Y-63855241D01*
X137058759Y-63655363D01*
X136823727Y-63498320D01*
X136562574Y-63390147D01*
X136285335Y-63335000D01*
X136002665Y-63335000D01*
X135725426Y-63390147D01*
X135464273Y-63498320D01*
X135229241Y-63655363D01*
X135029363Y-63855241D01*
X134872320Y-64090273D01*
X134867933Y-64100865D01*
X134756385Y-63914869D01*
X134567414Y-63706481D01*
X134341420Y-63538963D01*
X134087087Y-63418754D01*
X133953039Y-63378096D01*
X133731000Y-63500085D01*
X133731000Y-64643000D01*
X133751000Y-64643000D01*
X133751000Y-64897000D01*
X133731000Y-64897000D01*
X133731000Y-66039915D01*
X133953039Y-66161904D01*
X134087087Y-66121246D01*
X134341420Y-66001037D01*
X134567414Y-65833519D01*
X134756385Y-65625131D01*
X134867933Y-65439135D01*
X134872320Y-65449727D01*
X135029363Y-65684759D01*
X135229241Y-65884637D01*
X135309000Y-65937930D01*
X135309000Y-66456131D01*
X133766133Y-67999000D01*
X116139869Y-67999000D01*
X113259909Y-65119040D01*
X132212091Y-65119040D01*
X132306930Y-65383881D01*
X132451615Y-65625131D01*
X132640586Y-65833519D01*
X132866580Y-66001037D01*
X133120913Y-66121246D01*
X133254961Y-66161904D01*
X133477000Y-66039915D01*
X133477000Y-64897000D01*
X132333376Y-64897000D01*
X132212091Y-65119040D01*
X113259909Y-65119040D01*
X112561829Y-64420960D01*
X132212091Y-64420960D01*
X132333376Y-64643000D01*
X133477000Y-64643000D01*
X133477000Y-63500085D01*
X133254961Y-63378096D01*
X133120913Y-63418754D01*
X132866580Y-63538963D01*
X132640586Y-63706481D01*
X132451615Y-63914869D01*
X132306930Y-64156119D01*
X132212091Y-64420960D01*
X112561829Y-64420960D01*
X111775752Y-63634884D01*
X111841185Y-63581185D01*
X111920537Y-63484494D01*
X111979502Y-63374180D01*
X112015812Y-63254482D01*
X112028072Y-63130000D01*
X112028072Y-61330000D01*
X112015812Y-61205518D01*
X111979502Y-61085820D01*
X111920537Y-60975506D01*
X111841185Y-60878815D01*
X111744494Y-60799463D01*
X111634180Y-60740498D01*
X111514482Y-60704188D01*
X111390000Y-60691928D01*
X111325000Y-60691928D01*
X111325000Y-54955867D01*
X111402795Y-54878072D01*
X112660000Y-54878072D01*
X112784482Y-54865812D01*
X112904180Y-54829502D01*
X113014494Y-54770537D01*
X113111185Y-54691185D01*
X113190537Y-54594494D01*
X113249502Y-54484180D01*
X113285812Y-54364482D01*
X113298072Y-54240000D01*
X113298072Y-52440000D01*
X113285812Y-52315518D01*
X113249502Y-52195820D01*
X113190537Y-52085506D01*
X113111185Y-51988815D01*
X113014494Y-51909463D01*
X112904180Y-51850498D01*
X112784482Y-51814188D01*
X112660000Y-51801928D01*
X112595000Y-51801928D01*
X112595000Y-51145867D01*
X116482797Y-47258072D01*
X117740000Y-47258072D01*
X117864482Y-47245812D01*
X117984180Y-47209502D01*
X118094494Y-47150537D01*
X118191185Y-47071185D01*
X118270537Y-46974494D01*
X118329502Y-46864180D01*
X118365812Y-46744482D01*
X118378072Y-46620000D01*
X118378072Y-46555000D01*
X123860133Y-46555000D01*
X124995684Y-47690551D01*
X124981518Y-47724750D01*
X124911000Y-48079268D01*
X124911000Y-48440732D01*
X124981518Y-48795250D01*
X125119844Y-49129199D01*
X125320662Y-49429744D01*
X125576256Y-49685338D01*
X125876801Y-49886156D01*
X126210750Y-50024482D01*
X126565268Y-50095000D01*
X126926732Y-50095000D01*
X127281250Y-50024482D01*
X127615199Y-49886156D01*
X127915744Y-49685338D01*
X128171338Y-49429744D01*
X128372156Y-49129199D01*
X128510482Y-48795250D01*
X128581000Y-48440732D01*
X128581000Y-48079268D01*
X128510482Y-47724750D01*
X128372156Y-47390801D01*
X128171338Y-47090256D01*
X127915744Y-46834662D01*
X127615199Y-46633844D01*
X127281250Y-46495518D01*
X126926732Y-46425000D01*
X126565268Y-46425000D01*
X126210750Y-46495518D01*
X126176551Y-46509684D01*
X124825446Y-45158579D01*
X124799291Y-45126709D01*
X124672146Y-45022364D01*
X124527087Y-44944828D01*
X124369689Y-44897082D01*
X124247019Y-44885000D01*
X124247018Y-44885000D01*
X124206000Y-44880960D01*
X124164982Y-44885000D01*
X118378072Y-44885000D01*
X118378072Y-44820000D01*
X118365812Y-44695518D01*
X118329502Y-44575820D01*
X118270537Y-44465506D01*
X118191185Y-44368815D01*
X118094494Y-44289463D01*
X117984180Y-44230498D01*
X117864482Y-44194188D01*
X117740000Y-44181928D01*
X115940000Y-44181928D01*
X115815518Y-44194188D01*
X115698343Y-44229733D01*
X117183077Y-42745000D01*
X125359678Y-42745000D01*
X125373844Y-42779199D01*
X125574662Y-43079744D01*
X125830256Y-43335338D01*
X126130801Y-43536156D01*
X126464750Y-43674482D01*
X126819268Y-43745000D01*
X127180732Y-43745000D01*
X127535250Y-43674482D01*
X127869199Y-43536156D01*
X128169744Y-43335338D01*
X128317102Y-43187980D01*
X146221626Y-43187980D01*
X146341514Y-43472836D01*
X146665210Y-43633699D01*
X147014069Y-43728322D01*
X147374684Y-43753067D01*
X147733198Y-43706985D01*
X148075833Y-43591846D01*
X148298486Y-43472836D01*
X148418374Y-43187980D01*
X147320000Y-42089605D01*
X146221626Y-43187980D01*
X128317102Y-43187980D01*
X128425338Y-43079744D01*
X128626156Y-42779199D01*
X128764482Y-42445250D01*
X128835000Y-42090732D01*
X128835000Y-41964684D01*
X145476933Y-41964684D01*
X145523015Y-42323198D01*
X145638154Y-42665833D01*
X145757164Y-42888486D01*
X146042020Y-43008374D01*
X147140395Y-41910000D01*
X147499605Y-41910000D01*
X148597980Y-43008374D01*
X148882836Y-42888486D01*
X149043699Y-42564790D01*
X149138322Y-42215931D01*
X149163067Y-41855316D01*
X149116985Y-41496802D01*
X149001846Y-41154167D01*
X148882836Y-40931514D01*
X148597980Y-40811626D01*
X147499605Y-41910000D01*
X147140395Y-41910000D01*
X146042020Y-40811626D01*
X145757164Y-40931514D01*
X145596301Y-41255210D01*
X145501678Y-41604069D01*
X145476933Y-41964684D01*
X128835000Y-41964684D01*
X128835000Y-41729268D01*
X128764482Y-41374750D01*
X128626156Y-41040801D01*
X128425338Y-40740256D01*
X128317102Y-40632020D01*
X146221626Y-40632020D01*
X147320000Y-41730395D01*
X148418374Y-40632020D01*
X148298486Y-40347164D01*
X147974790Y-40186301D01*
X147625931Y-40091678D01*
X147265316Y-40066933D01*
X146906802Y-40113015D01*
X146564167Y-40228154D01*
X146341514Y-40347164D01*
X146221626Y-40632020D01*
X128317102Y-40632020D01*
X128169744Y-40484662D01*
X127869199Y-40283844D01*
X127535250Y-40145518D01*
X127180732Y-40075000D01*
X126819268Y-40075000D01*
X126464750Y-40145518D01*
X126130801Y-40283844D01*
X125830256Y-40484662D01*
X125574662Y-40740256D01*
X125373844Y-41040801D01*
X125359678Y-41075000D01*
X116878226Y-41075000D01*
X116837208Y-41070960D01*
X116796189Y-41075000D01*
X116673519Y-41087082D01*
X116516121Y-41134828D01*
X116371062Y-41212364D01*
X116243917Y-41316709D01*
X116217771Y-41348568D01*
X113738574Y-43827767D01*
X113706710Y-43853917D01*
X113680562Y-43885779D01*
X113602364Y-43981063D01*
X113524828Y-44126122D01*
X113477082Y-44283520D01*
X113462300Y-44433605D01*
X113321495Y-44527688D01*
X113107688Y-44741495D01*
X112939701Y-44992905D01*
X112823989Y-45272257D01*
X112765000Y-45568816D01*
X112765000Y-45871184D01*
X112798671Y-46040461D01*
X109558573Y-49280560D01*
X109526709Y-49306710D01*
X109449745Y-49400491D01*
X109422363Y-49433856D01*
X109344827Y-49578915D01*
X109297081Y-49736313D01*
X109280959Y-49900001D01*
X109285000Y-49941029D01*
X109284999Y-51805000D01*
X109068816Y-51805000D01*
X108772257Y-51863989D01*
X108492905Y-51979701D01*
X108241495Y-52147688D01*
X108027688Y-52361495D01*
X107859701Y-52612905D01*
X107743989Y-52892257D01*
X107685000Y-53188816D01*
X107685000Y-53491184D01*
X107718671Y-53660461D01*
X107388574Y-53990559D01*
X107356710Y-54016709D01*
X107298087Y-54088142D01*
X107252364Y-54143855D01*
X107174828Y-54288914D01*
X107127082Y-54446312D01*
X107110960Y-54610000D01*
X107115001Y-54651028D01*
X107115000Y-60941801D01*
X106971495Y-61037688D01*
X106757688Y-61251495D01*
X106589701Y-61502905D01*
X106473989Y-61782257D01*
X106415000Y-62078816D01*
X104346251Y-62078816D01*
X104899961Y-56541727D01*
X106796908Y-50850887D01*
X110592734Y-43891872D01*
X117550232Y-36934374D01*
X123508568Y-33955206D01*
X133760783Y-33955206D01*
X133760783Y-34624794D01*
X133891413Y-35281515D01*
X134147653Y-35900133D01*
X134519656Y-36456874D01*
X134993126Y-36930344D01*
X135549867Y-37302347D01*
X136168485Y-37558587D01*
X136825206Y-37689217D01*
X137494794Y-37689217D01*
X138151515Y-37558587D01*
X138770133Y-37302347D01*
X139326874Y-36930344D01*
X139800344Y-36456874D01*
X140172347Y-35900133D01*
X140428587Y-35281515D01*
X140559217Y-34624794D01*
X140559217Y-33955206D01*
X140428587Y-33298485D01*
X140172347Y-32679867D01*
X139800344Y-32123126D01*
X139326874Y-31649656D01*
X138770133Y-31277653D01*
X138151515Y-31021413D01*
X137494794Y-30890783D01*
X136825206Y-30890783D01*
X136168485Y-31021413D01*
X135549867Y-31277653D01*
X134993126Y-31649656D01*
X134519656Y-32123126D01*
X134147653Y-32679867D01*
X133891413Y-33298485D01*
X133760783Y-33955206D01*
X123508568Y-33955206D01*
X127672339Y-31873321D01*
X137791766Y-30608392D01*
X148547793Y-32506515D01*
G37*
X148547793Y-32506515D02*
X156768377Y-36932983D01*
X163727018Y-43891624D01*
X168154608Y-52114291D01*
X170052101Y-60969258D01*
X169419365Y-70460296D01*
X166889895Y-78048706D01*
X163097732Y-83736950D01*
X154871541Y-91330357D01*
X143480119Y-95760354D01*
X137162702Y-96392096D01*
X128304586Y-95126651D01*
X119445873Y-91330060D01*
X118272865Y-90391653D01*
X130009952Y-90391653D01*
X130165962Y-90707214D01*
X130540745Y-90898020D01*
X130945551Y-91012044D01*
X131364824Y-91044902D01*
X131782451Y-90995334D01*
X132182383Y-90865243D01*
X132478038Y-90707214D01*
X132634048Y-90391653D01*
X131322000Y-89079605D01*
X130009952Y-90391653D01*
X118272865Y-90391653D01*
X116461828Y-88942824D01*
X129177098Y-88942824D01*
X129226666Y-89360451D01*
X129356757Y-89760383D01*
X129514786Y-90056038D01*
X129830347Y-90212048D01*
X131142395Y-88900000D01*
X129830347Y-87587952D01*
X129514786Y-87743962D01*
X129323980Y-88118745D01*
X129209956Y-88523551D01*
X129177098Y-88942824D01*
X116461828Y-88942824D01*
X114543732Y-87408347D01*
X130009952Y-87408347D01*
X131322000Y-88720395D01*
X132634048Y-87408347D01*
X132478038Y-87092786D01*
X132103255Y-86901980D01*
X131698449Y-86787956D01*
X131279176Y-86755098D01*
X130861549Y-86804666D01*
X130461617Y-86934757D01*
X130165962Y-87092786D01*
X130009952Y-87408347D01*
X114543732Y-87408347D01*
X113122668Y-86271496D01*
X108062033Y-79313122D01*
X105533990Y-72993015D01*
X104267791Y-62863425D01*
X104346251Y-62078816D01*
X106415000Y-62078816D01*
X106415000Y-62381184D01*
X106473989Y-62677743D01*
X106589701Y-62957095D01*
X106757688Y-63208505D01*
X106971495Y-63422312D01*
X107222905Y-63590299D01*
X107502257Y-63706011D01*
X107798816Y-63765000D01*
X108101184Y-63765000D01*
X108397743Y-63706011D01*
X108677095Y-63590299D01*
X108928505Y-63422312D01*
X108994944Y-63355873D01*
X109000498Y-63374180D01*
X109059463Y-63484494D01*
X109138815Y-63581185D01*
X109235506Y-63660537D01*
X109345820Y-63719502D01*
X109465518Y-63755812D01*
X109590000Y-63768072D01*
X109689646Y-63768072D01*
X109714828Y-63851086D01*
X109792364Y-63996145D01*
X109792365Y-63996146D01*
X109896710Y-64123291D01*
X109928574Y-64149441D01*
X115174563Y-69395432D01*
X115200709Y-69427291D01*
X115327854Y-69531636D01*
X115472913Y-69609172D01*
X115630311Y-69656918D01*
X115752981Y-69669000D01*
X115752982Y-69669000D01*
X115794000Y-69673040D01*
X115835018Y-69669000D01*
X134070982Y-69669000D01*
X134112000Y-69673040D01*
X134153018Y-69669000D01*
X134153019Y-69669000D01*
X134275689Y-69656918D01*
X134433087Y-69609172D01*
X134578146Y-69531636D01*
X134705291Y-69427291D01*
X134731446Y-69395421D01*
X136705433Y-67421436D01*
X136737291Y-67395291D01*
X136841636Y-67268146D01*
X136919172Y-67123087D01*
X136966918Y-66965689D01*
X136979000Y-66843019D01*
X136979000Y-66843018D01*
X136983040Y-66802000D01*
X136979000Y-66760982D01*
X136979000Y-65937930D01*
X137058759Y-65884637D01*
X137258637Y-65684759D01*
X137414000Y-65452241D01*
X137569363Y-65684759D01*
X137769241Y-65884637D01*
X137849001Y-65937931D01*
X137849000Y-67472132D01*
X135582574Y-69738559D01*
X135550710Y-69764709D01*
X135524562Y-69796571D01*
X135446364Y-69891855D01*
X135368828Y-70036914D01*
X135321082Y-70194312D01*
X135304960Y-70358000D01*
X135309001Y-70399028D01*
X135309001Y-71222069D01*
X135229241Y-71275363D01*
X135029363Y-71475241D01*
X134874000Y-71707759D01*
X134718637Y-71475241D01*
X134518759Y-71275363D01*
X134283727Y-71118320D01*
X134022574Y-71010147D01*
X133745335Y-70955000D01*
X133462665Y-70955000D01*
X133185426Y-71010147D01*
X132924273Y-71118320D01*
X132689241Y-71275363D01*
X132489363Y-71475241D01*
X132332320Y-71710273D01*
X132224147Y-71971426D01*
X132169000Y-72248665D01*
X132169000Y-72531335D01*
X132224147Y-72808574D01*
X132332320Y-73069727D01*
X132489363Y-73304759D01*
X132689241Y-73504637D01*
X132924273Y-73661680D01*
X133185426Y-73769853D01*
X133462665Y-73825000D01*
X133745335Y-73825000D01*
X134022574Y-73769853D01*
X134283727Y-73661680D01*
X134518759Y-73504637D01*
X134718637Y-73304759D01*
X134874000Y-73072241D01*
X135029363Y-73304759D01*
X135229241Y-73504637D01*
X135464273Y-73661680D01*
X135725426Y-73769853D01*
X136002665Y-73825000D01*
X136285335Y-73825000D01*
X136562574Y-73769853D01*
X136823727Y-73661680D01*
X137058759Y-73504637D01*
X137258637Y-73304759D01*
X137414000Y-73072241D01*
X137569363Y-73304759D01*
X137769241Y-73504637D01*
X137849001Y-73557931D01*
X137849000Y-75092132D01*
X137068133Y-75873000D01*
X132933868Y-75873000D01*
X128889446Y-71828579D01*
X128863291Y-71796709D01*
X128736146Y-71692364D01*
X128591087Y-71614828D01*
X128433689Y-71567082D01*
X128311019Y-71555000D01*
X128311018Y-71555000D01*
X128270000Y-71550960D01*
X128228982Y-71555000D01*
X123560322Y-71555000D01*
X123546156Y-71520801D01*
X123345338Y-71220256D01*
X123089744Y-70964662D01*
X122789199Y-70763844D01*
X122455250Y-70625518D01*
X122100732Y-70555000D01*
X121739268Y-70555000D01*
X121384750Y-70625518D01*
X121050801Y-70763844D01*
X120750256Y-70964662D01*
X120494662Y-71220256D01*
X120293844Y-71520801D01*
X120155518Y-71854750D01*
X120085000Y-72209268D01*
X120085000Y-72570732D01*
X120155518Y-72925250D01*
X120293844Y-73259199D01*
X120494662Y-73559744D01*
X120750256Y-73815338D01*
X121050801Y-74016156D01*
X121384750Y-74154482D01*
X121739268Y-74225000D01*
X122100732Y-74225000D01*
X122455250Y-74154482D01*
X122789199Y-74016156D01*
X123089744Y-73815338D01*
X123345338Y-73559744D01*
X123546156Y-73259199D01*
X123560322Y-73225000D01*
X127924133Y-73225000D01*
X131968559Y-77269427D01*
X131994709Y-77301291D01*
X132121854Y-77405636D01*
X132266913Y-77483172D01*
X132424311Y-77530918D01*
X132587999Y-77547040D01*
X132629018Y-77543000D01*
X137372982Y-77543000D01*
X137414000Y-77547040D01*
X137455018Y-77543000D01*
X137455019Y-77543000D01*
X137577689Y-77530918D01*
X137735087Y-77483172D01*
X137880146Y-77405636D01*
X138007291Y-77301291D01*
X138033446Y-77269421D01*
X139245428Y-76057440D01*
X139277291Y-76031291D01*
X139381636Y-75904146D01*
X139459172Y-75759087D01*
X139506918Y-75601689D01*
X139519000Y-75479019D01*
X139519000Y-75479017D01*
X139523040Y-75438001D01*
X139519000Y-75396985D01*
X139519000Y-73557930D01*
X139598759Y-73504637D01*
X139798637Y-73304759D01*
X139955680Y-73069727D01*
X139960067Y-73059135D01*
X140071615Y-73245131D01*
X140260586Y-73453519D01*
X140486580Y-73621037D01*
X140740913Y-73741246D01*
X140874961Y-73781904D01*
X141097000Y-73659915D01*
X141097000Y-72517000D01*
X141351000Y-72517000D01*
X141351000Y-73659915D01*
X141573039Y-73781904D01*
X141707087Y-73741246D01*
X141862100Y-73667980D01*
X151301626Y-73667980D01*
X151421514Y-73952836D01*
X151745210Y-74113699D01*
X152094069Y-74208322D01*
X152454684Y-74233067D01*
X152813198Y-74186985D01*
X153155833Y-74071846D01*
X153378486Y-73952836D01*
X153498374Y-73667980D01*
X152400000Y-72569605D01*
X151301626Y-73667980D01*
X141862100Y-73667980D01*
X141961420Y-73621037D01*
X142187414Y-73453519D01*
X142376385Y-73245131D01*
X142521070Y-73003881D01*
X142615909Y-72739040D01*
X142494624Y-72517000D01*
X141351000Y-72517000D01*
X141097000Y-72517000D01*
X141077000Y-72517000D01*
X141077000Y-72444684D01*
X150556933Y-72444684D01*
X150603015Y-72803198D01*
X150718154Y-73145833D01*
X150837164Y-73368486D01*
X151122020Y-73488374D01*
X152220395Y-72390000D01*
X152579605Y-72390000D01*
X153677980Y-73488374D01*
X153962836Y-73368486D01*
X154123699Y-73044790D01*
X154218322Y-72695931D01*
X154243067Y-72335316D01*
X154196985Y-71976802D01*
X154081846Y-71634167D01*
X153962836Y-71411514D01*
X153677980Y-71291626D01*
X152579605Y-72390000D01*
X152220395Y-72390000D01*
X151122020Y-71291626D01*
X150837164Y-71411514D01*
X150676301Y-71735210D01*
X150581678Y-72084069D01*
X150556933Y-72444684D01*
X141077000Y-72444684D01*
X141077000Y-72263000D01*
X141097000Y-72263000D01*
X141097000Y-71120085D01*
X141351000Y-71120085D01*
X141351000Y-72263000D01*
X142494624Y-72263000D01*
X142615909Y-72040960D01*
X142521070Y-71776119D01*
X142376385Y-71534869D01*
X142187414Y-71326481D01*
X141961420Y-71158963D01*
X141862101Y-71112020D01*
X151301626Y-71112020D01*
X152400000Y-72210395D01*
X153498374Y-71112020D01*
X153378486Y-70827164D01*
X153054790Y-70666301D01*
X152705931Y-70571678D01*
X152345316Y-70546933D01*
X151986802Y-70593015D01*
X151644167Y-70708154D01*
X151421514Y-70827164D01*
X151301626Y-71112020D01*
X141862101Y-71112020D01*
X141707087Y-71038754D01*
X141573039Y-70998096D01*
X141351000Y-71120085D01*
X141097000Y-71120085D01*
X140874961Y-70998096D01*
X140740913Y-71038754D01*
X140486580Y-71158963D01*
X140260586Y-71326481D01*
X140071615Y-71534869D01*
X139960067Y-71720865D01*
X139955680Y-71710273D01*
X139798637Y-71475241D01*
X139723447Y-71400051D01*
X152961428Y-58162070D01*
X152993291Y-58135921D01*
X153097636Y-58008776D01*
X153175172Y-57863717D01*
X153222918Y-57706319D01*
X153235000Y-57583649D01*
X153235000Y-57583647D01*
X153239040Y-57542631D01*
X153235000Y-57501615D01*
X153235000Y-53710322D01*
X153269199Y-53696156D01*
X153569744Y-53495338D01*
X153825338Y-53239744D01*
X154026156Y-52939199D01*
X154164482Y-52605250D01*
X154235000Y-52250732D01*
X154235000Y-51889268D01*
X154164482Y-51534750D01*
X154026156Y-51200801D01*
X153825338Y-50900256D01*
X153569744Y-50644662D01*
X153269199Y-50443844D01*
X152935250Y-50305518D01*
X152580732Y-50235000D01*
X152219268Y-50235000D01*
X151864750Y-50305518D01*
X151530801Y-50443844D01*
X151230256Y-50644662D01*
X150974662Y-50900256D01*
X150773844Y-51200801D01*
X150635518Y-51534750D01*
X150565000Y-51889268D01*
X150565000Y-52250732D01*
X150635518Y-52605250D01*
X150773844Y-52939199D01*
X150974662Y-53239744D01*
X151230256Y-53495338D01*
X151530801Y-53696156D01*
X151565000Y-53710322D01*
X151565000Y-53808074D01*
X151565001Y-53808084D01*
X151565000Y-57196762D01*
X138122574Y-70639189D01*
X138090710Y-70665339D01*
X138064562Y-70697201D01*
X137986364Y-70792485D01*
X137908828Y-70937544D01*
X137861082Y-71094942D01*
X137848530Y-71222384D01*
X137769241Y-71275363D01*
X137569363Y-71475241D01*
X137414000Y-71707759D01*
X137258637Y-71475241D01*
X137058759Y-71275363D01*
X136979000Y-71222070D01*
X136979000Y-70703867D01*
X139245428Y-68437440D01*
X139277291Y-68411291D01*
X139381636Y-68284146D01*
X139459172Y-68139087D01*
X139506918Y-67981689D01*
X139519000Y-67859019D01*
X139519000Y-67859009D01*
X139523039Y-67818001D01*
X139519000Y-67776993D01*
X139519000Y-65937930D01*
X139598759Y-65884637D01*
X139797357Y-65686039D01*
X139798188Y-65694482D01*
X139834498Y-65814180D01*
X139893463Y-65924494D01*
X139972815Y-66021185D01*
X140069506Y-66100537D01*
X140179820Y-66159502D01*
X140299518Y-66195812D01*
X140424000Y-66208072D01*
X142024000Y-66208072D01*
X142148482Y-66195812D01*
X142268180Y-66159502D01*
X142378494Y-66100537D01*
X142475185Y-66021185D01*
X142554537Y-65924494D01*
X142613502Y-65814180D01*
X142649812Y-65694482D01*
X142662072Y-65570000D01*
X142662072Y-63970000D01*
X142649812Y-63845518D01*
X142613502Y-63725820D01*
X142554537Y-63615506D01*
X142475185Y-63518815D01*
X142378494Y-63439463D01*
X142359000Y-63429043D01*
X142359000Y-60790113D01*
X142364490Y-60734369D01*
X142359000Y-60678625D01*
X142359000Y-60678618D01*
X142342577Y-60511871D01*
X142277676Y-60297923D01*
X142172284Y-60100747D01*
X142030449Y-59927921D01*
X141987141Y-59892379D01*
X139998761Y-57904000D01*
X143327249Y-57904000D01*
X143383000Y-57909491D01*
X143438751Y-57904000D01*
X143438752Y-57904000D01*
X143605499Y-57887577D01*
X143819447Y-57822676D01*
X144016623Y-57717284D01*
X144189449Y-57575449D01*
X144224996Y-57532135D01*
X154902133Y-46855000D01*
X155987713Y-46855000D01*
X155990498Y-46864180D01*
X156049463Y-46974494D01*
X156128815Y-47071185D01*
X156225506Y-47150537D01*
X156335820Y-47209502D01*
X156345001Y-47212287D01*
X156345001Y-48204239D01*
X156339509Y-48260000D01*
X156361423Y-48482498D01*
X156426324Y-48696446D01*
X156442199Y-48726146D01*
X156531717Y-48893623D01*
X156673552Y-49066449D01*
X156716860Y-49101991D01*
X160386928Y-52772060D01*
X160386928Y-53605000D01*
X160399188Y-53729482D01*
X160435498Y-53849180D01*
X160494463Y-53959494D01*
X160573815Y-54056185D01*
X160670506Y-54135537D01*
X160780820Y-54194502D01*
X160790001Y-54197287D01*
X160790001Y-55189239D01*
X160784509Y-55245000D01*
X160806423Y-55467498D01*
X160871324Y-55681446D01*
X160894508Y-55724820D01*
X160976717Y-55878623D01*
X161118552Y-56051449D01*
X161161860Y-56086991D01*
X163965000Y-58890132D01*
X163965000Y-59467713D01*
X163955820Y-59470498D01*
X163845506Y-59529463D01*
X163748815Y-59608815D01*
X163669463Y-59705506D01*
X163610498Y-59815820D01*
X163574188Y-59935518D01*
X163561928Y-60060000D01*
X163561928Y-61860000D01*
X163574188Y-61984482D01*
X163610498Y-62104180D01*
X163669463Y-62214494D01*
X163748815Y-62311185D01*
X163845506Y-62390537D01*
X163955820Y-62449502D01*
X163965001Y-62452287D01*
X163965000Y-68109868D01*
X148809868Y-83265001D01*
X142477751Y-83265001D01*
X142421999Y-83259510D01*
X142199500Y-83281424D01*
X141985552Y-83346325D01*
X141788376Y-83451717D01*
X141658855Y-83558012D01*
X141658853Y-83558014D01*
X141615550Y-83593552D01*
X141580012Y-83636855D01*
X140661922Y-84554945D01*
X140354335Y-84349422D01*
X139419824Y-83962335D01*
X138427753Y-83765000D01*
X137416247Y-83765000D01*
X136424176Y-83962335D01*
X135489665Y-84349422D01*
X134648628Y-84911385D01*
X133933385Y-85626628D01*
X133371422Y-86467665D01*
X132984335Y-87402176D01*
X132935408Y-87648147D01*
X132813653Y-87587952D01*
X131501605Y-88900000D01*
X132813653Y-90212048D01*
X132935408Y-90151853D01*
X132984335Y-90397824D01*
X133371422Y-91332335D01*
X133933385Y-92173372D01*
X134648628Y-92888615D01*
X135489665Y-93450578D01*
X136424176Y-93837665D01*
X137416247Y-94035000D01*
X138427753Y-94035000D01*
X139419824Y-93837665D01*
X140354335Y-93450578D01*
X141195372Y-92888615D01*
X141910615Y-92173372D01*
X142472578Y-91332335D01*
X142859665Y-90397824D01*
X142860892Y-90391653D01*
X143209952Y-90391653D01*
X143365962Y-90707214D01*
X143740745Y-90898020D01*
X144145551Y-91012044D01*
X144564824Y-91044902D01*
X144982451Y-90995334D01*
X145382383Y-90865243D01*
X145678038Y-90707214D01*
X145834048Y-90391653D01*
X144522000Y-89079605D01*
X143209952Y-90391653D01*
X142860892Y-90391653D01*
X142908592Y-90151853D01*
X143030347Y-90212048D01*
X144342395Y-88900000D01*
X144701605Y-88900000D01*
X146013653Y-90212048D01*
X146329214Y-90056038D01*
X146520020Y-89681255D01*
X146634044Y-89276449D01*
X146666902Y-88857176D01*
X146617334Y-88439549D01*
X146487243Y-88039617D01*
X146329214Y-87743962D01*
X146013653Y-87587952D01*
X144701605Y-88900000D01*
X144342395Y-88900000D01*
X143030347Y-87587952D01*
X142908592Y-87648147D01*
X142860893Y-87408347D01*
X143209952Y-87408347D01*
X144522000Y-88720395D01*
X145834048Y-87408347D01*
X145678038Y-87092786D01*
X145303255Y-86901980D01*
X144898449Y-86787956D01*
X144479176Y-86755098D01*
X144061549Y-86804666D01*
X143661617Y-86934757D01*
X143365962Y-87092786D01*
X143209952Y-87408347D01*
X142860893Y-87408347D01*
X142859665Y-87402176D01*
X142472578Y-86467665D01*
X142267055Y-86160078D01*
X142892132Y-85535001D01*
X149224248Y-85535001D01*
X149279999Y-85540492D01*
X149335750Y-85535001D01*
X149335751Y-85535001D01*
X149502498Y-85518578D01*
X149716446Y-85453677D01*
X149913622Y-85348285D01*
X150086448Y-85206450D01*
X150121995Y-85163136D01*
X165863141Y-69421991D01*
X165906449Y-69386449D01*
X166048284Y-69213623D01*
X166153676Y-69016447D01*
X166218577Y-68802499D01*
X166235000Y-68635752D01*
X166235000Y-68635751D01*
X166240491Y-68580000D01*
X166235000Y-68524249D01*
X166235000Y-62452287D01*
X166244180Y-62449502D01*
X166354494Y-62390537D01*
X166451185Y-62311185D01*
X166530537Y-62214494D01*
X166589502Y-62104180D01*
X166595056Y-62085873D01*
X166661495Y-62152312D01*
X166912905Y-62320299D01*
X167192257Y-62436011D01*
X167488816Y-62495000D01*
X167791184Y-62495000D01*
X168087743Y-62436011D01*
X168367095Y-62320299D01*
X168618505Y-62152312D01*
X168832312Y-61938505D01*
X169000299Y-61687095D01*
X169116011Y-61407743D01*
X169175000Y-61111184D01*
X169175000Y-60808816D01*
X169116011Y-60512257D01*
X169000299Y-60232905D01*
X168832312Y-59981495D01*
X168618505Y-59767688D01*
X168475000Y-59671801D01*
X168475000Y-57193810D01*
X168479040Y-57152791D01*
X168462918Y-56989103D01*
X168415172Y-56831705D01*
X168337636Y-56686646D01*
X168233291Y-56559501D01*
X168201428Y-56533352D01*
X165504446Y-53836371D01*
X165657312Y-53683505D01*
X165825299Y-53432095D01*
X165941011Y-53152743D01*
X166000000Y-52856184D01*
X166000000Y-52553816D01*
X165941011Y-52257257D01*
X165825299Y-51977905D01*
X165657312Y-51726495D01*
X165443505Y-51512688D01*
X165302699Y-51418604D01*
X165300000Y-51391199D01*
X165300000Y-51391189D01*
X165287918Y-51268519D01*
X165240172Y-51111121D01*
X165162636Y-50966062D01*
X165058291Y-50838917D01*
X165026427Y-50812768D01*
X164198238Y-49984579D01*
X164172083Y-49952709D01*
X164044938Y-49848364D01*
X163899879Y-49770828D01*
X163742481Y-49723082D01*
X163619811Y-49711000D01*
X163619810Y-49711000D01*
X163578792Y-49706960D01*
X163537774Y-49711000D01*
X163159869Y-49711000D01*
X160855000Y-47406133D01*
X160855000Y-47008199D01*
X160998505Y-46912312D01*
X161212312Y-46698505D01*
X161380299Y-46447095D01*
X161496011Y-46167743D01*
X161555000Y-45871184D01*
X161555000Y-45568816D01*
X161496011Y-45272257D01*
X161380299Y-44992905D01*
X161212312Y-44741495D01*
X160998505Y-44527688D01*
X160857700Y-44433605D01*
X160842918Y-44283519D01*
X160795172Y-44126121D01*
X160717636Y-43981062D01*
X160639439Y-43885778D01*
X160639437Y-43885776D01*
X160613291Y-43853917D01*
X160581433Y-43827772D01*
X158102238Y-41348579D01*
X158076083Y-41316709D01*
X157948938Y-41212364D01*
X157803879Y-41134828D01*
X157646481Y-41087082D01*
X157523811Y-41075000D01*
X157523810Y-41075000D01*
X157482792Y-41070960D01*
X157441774Y-41075000D01*
X155154074Y-41075000D01*
X155113055Y-41070960D01*
X155072037Y-41075000D01*
X154949367Y-41087082D01*
X154791969Y-41134828D01*
X154646910Y-41212364D01*
X154519765Y-41316709D01*
X154493615Y-41348573D01*
X148595718Y-47246471D01*
X148491338Y-47090256D01*
X148235744Y-46834662D01*
X147935199Y-46633844D01*
X147601250Y-46495518D01*
X147246732Y-46425000D01*
X146885268Y-46425000D01*
X146530750Y-46495518D01*
X146196801Y-46633844D01*
X145896256Y-46834662D01*
X145640662Y-47090256D01*
X145439844Y-47390801D01*
X145301518Y-47724750D01*
X145231000Y-48079268D01*
X145231000Y-48440732D01*
X145301518Y-48795250D01*
X145439844Y-49129199D01*
X145640662Y-49429744D01*
X145896256Y-49685338D01*
X146196801Y-49886156D01*
X146530750Y-50024482D01*
X146885268Y-50095000D01*
X147246732Y-50095000D01*
X147601250Y-50024482D01*
X147935199Y-49886156D01*
X148235744Y-49685338D01*
X148491338Y-49429744D01*
X148692156Y-49129199D01*
X148706322Y-49095000D01*
X148722038Y-49095000D01*
X148763056Y-49099040D01*
X148804074Y-49095000D01*
X148804075Y-49095000D01*
X148926745Y-49082918D01*
X149084143Y-49035172D01*
X149229202Y-48957636D01*
X149356347Y-48853291D01*
X149382502Y-48821421D01*
X155458924Y-42745000D01*
X157136925Y-42745000D01*
X158621656Y-44229732D01*
X158504482Y-44194188D01*
X158380000Y-44181928D01*
X156580000Y-44181928D01*
X156455518Y-44194188D01*
X156335820Y-44230498D01*
X156225506Y-44289463D01*
X156128815Y-44368815D01*
X156049463Y-44465506D01*
X155990498Y-44575820D01*
X155987713Y-44585000D01*
X154487752Y-44585000D01*
X154432000Y-44579509D01*
X154209501Y-44601423D01*
X153995553Y-44666324D01*
X153798377Y-44771716D01*
X153668856Y-44878011D01*
X153668854Y-44878013D01*
X153625551Y-44913551D01*
X153590013Y-44956854D01*
X142912869Y-55634000D01*
X139274284Y-55634000D01*
X139069727Y-55497320D01*
X138808574Y-55389147D01*
X138531335Y-55334000D01*
X138248665Y-55334000D01*
X137971426Y-55389147D01*
X137710273Y-55497320D01*
X137475241Y-55654363D01*
X137308661Y-55820943D01*
X137279502Y-55724820D01*
X137220537Y-55614506D01*
X137141185Y-55517815D01*
X137044494Y-55438463D01*
X136934180Y-55379498D01*
X136814482Y-55343188D01*
X136690365Y-55330964D01*
X136665172Y-55247913D01*
X136587636Y-55102854D01*
X136483291Y-54975709D01*
X136451428Y-54949560D01*
X133010446Y-51508579D01*
X132984291Y-51476709D01*
X132857146Y-51372364D01*
X132712087Y-51294828D01*
X132554689Y-51247082D01*
X132432019Y-51235000D01*
X132432018Y-51235000D01*
X132391000Y-51230960D01*
X132349982Y-51235000D01*
X123560322Y-51235000D01*
X123546156Y-51200801D01*
X123345338Y-50900256D01*
X123089744Y-50644662D01*
X122789199Y-50443844D01*
X122455250Y-50305518D01*
X122100732Y-50235000D01*
X121739268Y-50235000D01*
X121384750Y-50305518D01*
X121050801Y-50443844D01*
X120750256Y-50644662D01*
X120494662Y-50900256D01*
X120293844Y-51200801D01*
X120155518Y-51534750D01*
X120085000Y-51889268D01*
X120085000Y-52250732D01*
X120155518Y-52605250D01*
X120293844Y-52939199D01*
X120494662Y-53239744D01*
X120750256Y-53495338D01*
X121050801Y-53696156D01*
X121384750Y-53834482D01*
X121739268Y-53905000D01*
X122100732Y-53905000D01*
X122455250Y-53834482D01*
X122789199Y-53696156D01*
X123089744Y-53495338D01*
X123345338Y-53239744D01*
X123546156Y-52939199D01*
X123560322Y-52905000D01*
X132045133Y-52905000D01*
X134649323Y-55509191D01*
X134638815Y-55517815D01*
X134559463Y-55614506D01*
X134500498Y-55724820D01*
X134464188Y-55844518D01*
X134451928Y-55969000D01*
X134451928Y-57569000D01*
X134464188Y-57693482D01*
X134500498Y-57813180D01*
X134559463Y-57923494D01*
X134638815Y-58020185D01*
X134735506Y-58099537D01*
X134845820Y-58158502D01*
X134965518Y-58194812D01*
X135055000Y-58203625D01*
X135055000Y-58632981D01*
X135050960Y-58674000D01*
X135055000Y-58715018D01*
X135067082Y-58837688D01*
X135114828Y-58995086D01*
X135192364Y-59140145D01*
X135296709Y-59267291D01*
X135328579Y-59293446D01*
X137849001Y-61813870D01*
X137849000Y-63602070D01*
X137769241Y-63655363D01*
X137569363Y-63855241D01*
X137414000Y-64087759D01*
X137258637Y-63855241D01*
X137058759Y-63655363D01*
X136823727Y-63498320D01*
X136562574Y-63390147D01*
X136285335Y-63335000D01*
X136002665Y-63335000D01*
X135725426Y-63390147D01*
X135464273Y-63498320D01*
X135229241Y-63655363D01*
X135029363Y-63855241D01*
X134872320Y-64090273D01*
X134867933Y-64100865D01*
X134756385Y-63914869D01*
X134567414Y-63706481D01*
X134341420Y-63538963D01*
X134087087Y-63418754D01*
X133953039Y-63378096D01*
X133731000Y-63500085D01*
X133731000Y-64643000D01*
X133751000Y-64643000D01*
X133751000Y-64897000D01*
X133731000Y-64897000D01*
X133731000Y-66039915D01*
X133953039Y-66161904D01*
X134087087Y-66121246D01*
X134341420Y-66001037D01*
X134567414Y-65833519D01*
X134756385Y-65625131D01*
X134867933Y-65439135D01*
X134872320Y-65449727D01*
X135029363Y-65684759D01*
X135229241Y-65884637D01*
X135309000Y-65937930D01*
X135309000Y-66456131D01*
X133766133Y-67999000D01*
X116139869Y-67999000D01*
X113259909Y-65119040D01*
X132212091Y-65119040D01*
X132306930Y-65383881D01*
X132451615Y-65625131D01*
X132640586Y-65833519D01*
X132866580Y-66001037D01*
X133120913Y-66121246D01*
X133254961Y-66161904D01*
X133477000Y-66039915D01*
X133477000Y-64897000D01*
X132333376Y-64897000D01*
X132212091Y-65119040D01*
X113259909Y-65119040D01*
X112561829Y-64420960D01*
X132212091Y-64420960D01*
X132333376Y-64643000D01*
X133477000Y-64643000D01*
X133477000Y-63500085D01*
X133254961Y-63378096D01*
X133120913Y-63418754D01*
X132866580Y-63538963D01*
X132640586Y-63706481D01*
X132451615Y-63914869D01*
X132306930Y-64156119D01*
X132212091Y-64420960D01*
X112561829Y-64420960D01*
X111775752Y-63634884D01*
X111841185Y-63581185D01*
X111920537Y-63484494D01*
X111979502Y-63374180D01*
X112015812Y-63254482D01*
X112028072Y-63130000D01*
X112028072Y-61330000D01*
X112015812Y-61205518D01*
X111979502Y-61085820D01*
X111920537Y-60975506D01*
X111841185Y-60878815D01*
X111744494Y-60799463D01*
X111634180Y-60740498D01*
X111514482Y-60704188D01*
X111390000Y-60691928D01*
X111325000Y-60691928D01*
X111325000Y-54955867D01*
X111402795Y-54878072D01*
X112660000Y-54878072D01*
X112784482Y-54865812D01*
X112904180Y-54829502D01*
X113014494Y-54770537D01*
X113111185Y-54691185D01*
X113190537Y-54594494D01*
X113249502Y-54484180D01*
X113285812Y-54364482D01*
X113298072Y-54240000D01*
X113298072Y-52440000D01*
X113285812Y-52315518D01*
X113249502Y-52195820D01*
X113190537Y-52085506D01*
X113111185Y-51988815D01*
X113014494Y-51909463D01*
X112904180Y-51850498D01*
X112784482Y-51814188D01*
X112660000Y-51801928D01*
X112595000Y-51801928D01*
X112595000Y-51145867D01*
X116482797Y-47258072D01*
X117740000Y-47258072D01*
X117864482Y-47245812D01*
X117984180Y-47209502D01*
X118094494Y-47150537D01*
X118191185Y-47071185D01*
X118270537Y-46974494D01*
X118329502Y-46864180D01*
X118365812Y-46744482D01*
X118378072Y-46620000D01*
X118378072Y-46555000D01*
X123860133Y-46555000D01*
X124995684Y-47690551D01*
X124981518Y-47724750D01*
X124911000Y-48079268D01*
X124911000Y-48440732D01*
X124981518Y-48795250D01*
X125119844Y-49129199D01*
X125320662Y-49429744D01*
X125576256Y-49685338D01*
X125876801Y-49886156D01*
X126210750Y-50024482D01*
X126565268Y-50095000D01*
X126926732Y-50095000D01*
X127281250Y-50024482D01*
X127615199Y-49886156D01*
X127915744Y-49685338D01*
X128171338Y-49429744D01*
X128372156Y-49129199D01*
X128510482Y-48795250D01*
X128581000Y-48440732D01*
X128581000Y-48079268D01*
X128510482Y-47724750D01*
X128372156Y-47390801D01*
X128171338Y-47090256D01*
X127915744Y-46834662D01*
X127615199Y-46633844D01*
X127281250Y-46495518D01*
X126926732Y-46425000D01*
X126565268Y-46425000D01*
X126210750Y-46495518D01*
X126176551Y-46509684D01*
X124825446Y-45158579D01*
X124799291Y-45126709D01*
X124672146Y-45022364D01*
X124527087Y-44944828D01*
X124369689Y-44897082D01*
X124247019Y-44885000D01*
X124247018Y-44885000D01*
X124206000Y-44880960D01*
X124164982Y-44885000D01*
X118378072Y-44885000D01*
X118378072Y-44820000D01*
X118365812Y-44695518D01*
X118329502Y-44575820D01*
X118270537Y-44465506D01*
X118191185Y-44368815D01*
X118094494Y-44289463D01*
X117984180Y-44230498D01*
X117864482Y-44194188D01*
X117740000Y-44181928D01*
X115940000Y-44181928D01*
X115815518Y-44194188D01*
X115698343Y-44229733D01*
X117183077Y-42745000D01*
X125359678Y-42745000D01*
X125373844Y-42779199D01*
X125574662Y-43079744D01*
X125830256Y-43335338D01*
X126130801Y-43536156D01*
X126464750Y-43674482D01*
X126819268Y-43745000D01*
X127180732Y-43745000D01*
X127535250Y-43674482D01*
X127869199Y-43536156D01*
X128169744Y-43335338D01*
X128317102Y-43187980D01*
X146221626Y-43187980D01*
X146341514Y-43472836D01*
X146665210Y-43633699D01*
X147014069Y-43728322D01*
X147374684Y-43753067D01*
X147733198Y-43706985D01*
X148075833Y-43591846D01*
X148298486Y-43472836D01*
X148418374Y-43187980D01*
X147320000Y-42089605D01*
X146221626Y-43187980D01*
X128317102Y-43187980D01*
X128425338Y-43079744D01*
X128626156Y-42779199D01*
X128764482Y-42445250D01*
X128835000Y-42090732D01*
X128835000Y-41964684D01*
X145476933Y-41964684D01*
X145523015Y-42323198D01*
X145638154Y-42665833D01*
X145757164Y-42888486D01*
X146042020Y-43008374D01*
X147140395Y-41910000D01*
X147499605Y-41910000D01*
X148597980Y-43008374D01*
X148882836Y-42888486D01*
X149043699Y-42564790D01*
X149138322Y-42215931D01*
X149163067Y-41855316D01*
X149116985Y-41496802D01*
X149001846Y-41154167D01*
X148882836Y-40931514D01*
X148597980Y-40811626D01*
X147499605Y-41910000D01*
X147140395Y-41910000D01*
X146042020Y-40811626D01*
X145757164Y-40931514D01*
X145596301Y-41255210D01*
X145501678Y-41604069D01*
X145476933Y-41964684D01*
X128835000Y-41964684D01*
X128835000Y-41729268D01*
X128764482Y-41374750D01*
X128626156Y-41040801D01*
X128425338Y-40740256D01*
X128317102Y-40632020D01*
X146221626Y-40632020D01*
X147320000Y-41730395D01*
X148418374Y-40632020D01*
X148298486Y-40347164D01*
X147974790Y-40186301D01*
X147625931Y-40091678D01*
X147265316Y-40066933D01*
X146906802Y-40113015D01*
X146564167Y-40228154D01*
X146341514Y-40347164D01*
X146221626Y-40632020D01*
X128317102Y-40632020D01*
X128169744Y-40484662D01*
X127869199Y-40283844D01*
X127535250Y-40145518D01*
X127180732Y-40075000D01*
X126819268Y-40075000D01*
X126464750Y-40145518D01*
X126130801Y-40283844D01*
X125830256Y-40484662D01*
X125574662Y-40740256D01*
X125373844Y-41040801D01*
X125359678Y-41075000D01*
X116878226Y-41075000D01*
X116837208Y-41070960D01*
X116796189Y-41075000D01*
X116673519Y-41087082D01*
X116516121Y-41134828D01*
X116371062Y-41212364D01*
X116243917Y-41316709D01*
X116217771Y-41348568D01*
X113738574Y-43827767D01*
X113706710Y-43853917D01*
X113680562Y-43885779D01*
X113602364Y-43981063D01*
X113524828Y-44126122D01*
X113477082Y-44283520D01*
X113462300Y-44433605D01*
X113321495Y-44527688D01*
X113107688Y-44741495D01*
X112939701Y-44992905D01*
X112823989Y-45272257D01*
X112765000Y-45568816D01*
X112765000Y-45871184D01*
X112798671Y-46040461D01*
X109558573Y-49280560D01*
X109526709Y-49306710D01*
X109449745Y-49400491D01*
X109422363Y-49433856D01*
X109344827Y-49578915D01*
X109297081Y-49736313D01*
X109280959Y-49900001D01*
X109285000Y-49941029D01*
X109284999Y-51805000D01*
X109068816Y-51805000D01*
X108772257Y-51863989D01*
X108492905Y-51979701D01*
X108241495Y-52147688D01*
X108027688Y-52361495D01*
X107859701Y-52612905D01*
X107743989Y-52892257D01*
X107685000Y-53188816D01*
X107685000Y-53491184D01*
X107718671Y-53660461D01*
X107388574Y-53990559D01*
X107356710Y-54016709D01*
X107298087Y-54088142D01*
X107252364Y-54143855D01*
X107174828Y-54288914D01*
X107127082Y-54446312D01*
X107110960Y-54610000D01*
X107115001Y-54651028D01*
X107115000Y-60941801D01*
X106971495Y-61037688D01*
X106757688Y-61251495D01*
X106589701Y-61502905D01*
X106473989Y-61782257D01*
X106415000Y-62078816D01*
X104346251Y-62078816D01*
X104899961Y-56541727D01*
X106796908Y-50850887D01*
X110592734Y-43891872D01*
X117550232Y-36934374D01*
X123508568Y-33955206D01*
X133760783Y-33955206D01*
X133760783Y-34624794D01*
X133891413Y-35281515D01*
X134147653Y-35900133D01*
X134519656Y-36456874D01*
X134993126Y-36930344D01*
X135549867Y-37302347D01*
X136168485Y-37558587D01*
X136825206Y-37689217D01*
X137494794Y-37689217D01*
X138151515Y-37558587D01*
X138770133Y-37302347D01*
X139326874Y-36930344D01*
X139800344Y-36456874D01*
X140172347Y-35900133D01*
X140428587Y-35281515D01*
X140559217Y-34624794D01*
X140559217Y-33955206D01*
X140428587Y-33298485D01*
X140172347Y-32679867D01*
X139800344Y-32123126D01*
X139326874Y-31649656D01*
X138770133Y-31277653D01*
X138151515Y-31021413D01*
X137494794Y-30890783D01*
X136825206Y-30890783D01*
X136168485Y-31021413D01*
X135549867Y-31277653D01*
X134993126Y-31649656D01*
X134519656Y-32123126D01*
X134147653Y-32679867D01*
X133891413Y-33298485D01*
X133760783Y-33955206D01*
X123508568Y-33955206D01*
X127672339Y-31873321D01*
X137791766Y-30608392D01*
X148547793Y-32506515D01*
M02*
